<svg width="188" height="174" viewBox="0 0 188 174" fill="none" xmlns="http://www.w3.org/2000/svg">
<g filter="url(#filter0_d_1_11359)">
<path d="M99.4112 0.612961C96.0214 1.10707 83.4328 2.33527 77.7503 2.71645C74.5012 2.94232 66.948 2.98466 64.8522 2.80115C63.7832 2.70232 63.5441 2.63173 62.883 2.19409C61.8703 1.50235 61.2374 1.33295 60.0418 1.40353C58.6493 1.50235 57.6085 2.02469 56.441 3.19643C55.3017 4.35405 54.8798 5.20108 54.7813 6.47165C54.711 7.55869 54.922 10.2127 55.3158 12.8103C55.7378 15.6197 55.9065 17.8361 55.8081 18.9937C55.7378 19.6855 55.4564 20.8713 55.0345 22.1983C54.6547 23.356 54.0218 25.3889 53.6279 26.7159C52.348 30.9511 51.2649 33.3228 49.7177 35.2569C48.3674 36.965 46.1873 38.5038 44.2744 39.1109C42.8959 39.5485 41.827 39.6473 37.4526 39.7744C34.5129 39.845 32.614 39.972 31.7982 40.1132C29.9275 40.452 27.227 41.3979 25.1031 42.4567C20.8271 44.5884 18.0984 46.8331 14.9759 50.8283C14.3007 51.6894 12.8661 53.4964 11.783 54.8517C8.46356 59.0022 7.92907 59.708 7.43678 60.7386C6.56472 62.5033 6.48032 63.0115 6.43813 67.0914C6.41 70.9737 6.29747 72.0042 5.43948 76.0559C4.39863 80.9264 4.13138 82.6204 4.03292 85.091C3.9626 86.7286 3.99073 87.1945 4.25797 88.4085C4.41269 89.185 4.60961 90.1167 4.66587 90.4838C4.75027 91.0203 4.93312 91.3167 5.56606 92.0085C6.78976 93.3214 8.70267 96.8507 9.11057 98.5307C9.16684 98.7424 9.46221 99.2083 9.75759 99.5471C10.5453 100.437 10.8125 101.636 11.0797 105.321C11.2907 108.328 11.4876 109.514 11.994 110.897C12.9223 113.396 15.0181 116.29 17.0857 117.914C18.1125 118.718 19.8566 119.678 20.3067 119.678C20.4614 119.678 20.6162 119.876 20.7287 120.201C20.9537 120.892 21.3194 121.485 22.6697 123.264C24.3154 125.438 24.5545 126.229 24.7936 130.478C24.878 131.946 24.9765 133.287 25.0327 133.429C25.2015 134.007 29.0977 138.737 31.6435 141.461C33.1767 143.099 33.4298 143.24 35.2302 143.353C36.4539 143.438 36.468 143.438 37.2697 144.13C37.7198 144.511 38.7466 145.245 39.5343 145.767C45.2308 149.466 46.3139 150.313 46.3139 151.061C46.3139 151.626 46.6092 152.261 47.2562 153.08C48.0017 154.012 48.2971 154.591 48.4096 155.353L48.494 155.988L49.4786 156.299C50.4913 156.638 51.6025 157.118 55.5268 158.967C58.9025 160.548 60.6185 161.042 62.7705 161.042C64.2474 161.042 64.7537 160.901 65.8227 160.209C66.962 159.475 67.2011 159.419 67.8482 159.715L68.3967 159.955L68.7906 159.588C69.1422 159.249 69.2969 159.207 70.0986 159.207C72.0116 159.207 73.2071 159.842 74.7403 161.692C76.6954 164.049 77.2299 164.402 79.4381 164.882C81.0557 165.221 84.6283 165.348 88.7214 165.207L91.8158 165.108L93.2224 163.724C94.9383 162.044 95.5713 161.762 97.7374 161.649C100.1 161.522 102.801 162.073 104.967 163.132C105.544 163.414 106.078 163.626 106.149 163.597C106.233 163.583 108.132 163.513 110.368 163.442C114.743 163.301 115.615 163.202 117.331 162.666C118.737 162.214 119.764 161.522 121.424 159.913C122.985 158.388 123.801 157.823 125.151 157.343C126.994 156.666 128.245 156.454 130.285 156.468C131.987 156.468 132.296 156.51 133.281 156.849L134.392 157.23L135.953 156.327C138.119 155.071 140.426 153.983 142.592 153.193C144.885 152.374 145.616 151.993 146.418 151.259C147.248 150.497 147.417 150.129 147.642 148.591C147.754 147.871 147.895 147.151 147.951 146.995C148.204 146.275 149.147 145.273 150.652 144.073C151.552 143.353 153.015 142.083 153.887 141.236C155.758 139.429 156.63 138.934 157.685 139.076C159.766 139.372 159.372 139.513 161.651 137.678C166.518 133.739 168.107 131.805 168.965 128.713C169.275 127.598 169.359 125.523 169.176 123.998C169.092 123.335 169.12 123.18 169.443 122.7C169.64 122.389 170.259 121.161 170.808 119.961C171.849 117.688 172.721 116.22 173.438 115.542C173.663 115.33 174.507 114.822 175.309 114.413C176.926 113.608 176.842 113.693 178.347 111.067C180.682 106.973 181.765 103.599 181.765 100.394C181.765 98.686 181.568 97.8954 180.668 96.1166L179.866 94.5072V93.0814C179.88 91.2461 180.105 90.5261 181.905 86.7851C183.439 83.5945 183.846 82.3805 183.973 80.5593C184.086 78.8229 183.846 77.5806 183.242 76.8324C182.426 75.8441 181.948 74.5877 181.357 71.9619C180.752 69.1808 180.611 68.7855 179.838 67.6279C179.528 67.1761 178.361 64.9314 177.236 62.6444C174.479 57.0681 171.891 52.7764 168.571 48.2871C167.727 47.1436 167.418 46.8189 167.08 46.7483C166.447 46.6213 165.308 45.9578 163.93 44.899C162.382 43.7131 161.637 43.3743 159.963 43.092C158.107 42.7814 157.516 42.5273 156.545 41.6379C156.025 41.1579 155.279 40.6638 154.562 40.325C153.479 39.8167 152.762 39.5909 148.655 38.4333L146.854 37.925L145.982 37.0498C144.716 35.7651 143.703 35.2569 139.653 33.831C136.811 32.8428 135.967 32.4616 134.842 31.6993L133.97 31.1205L133.886 30.2311C133.759 28.9888 133.225 27.2241 132.296 24.9653C130.215 19.8972 129.807 18.6549 129.582 16.6502C129.427 15.3373 129.624 13.6997 130.018 12.8527C130.299 12.2739 130.426 12.1609 132.128 11.1162C132.662 10.7915 132.887 10.5233 133.253 9.76099C133.675 8.89983 133.731 8.64571 133.773 7.37515L133.829 5.93518L132.479 5.55402C131.748 5.34225 129.722 4.69286 128.006 4.11406C122.014 2.08116 120.003 1.51646 117.063 1.00824C115.39 0.711777 111.929 0.655304 108.343 0.867065C106.191 0.994125 106.149 0.980011 105.08 0.612961C103.715 0.147079 102.52 0.147079 99.4112 0.612961ZM117.19 2.78702C119.272 3.21054 120.847 3.74701 125.151 5.46931C127.247 6.30223 129.469 7.16339 130.116 7.37515L131.284 7.75632L130.608 8.4763C128.4 10.848 127.247 13.6856 127.359 16.4385C127.402 17.6243 127.444 17.7796 128.358 19.7702C129.427 22.1136 129.483 22.3113 130.369 26.3629C131.256 30.4711 131.776 31.9675 132.789 33.3651C133.14 33.8451 133.351 33.9722 134.097 34.1839C135.475 34.5792 138.373 35.4968 139.709 35.991C141.087 36.4851 143.507 37.5156 143.507 37.6144C143.507 37.6427 143.408 37.8686 143.282 38.0944C143.169 38.3344 143.085 38.5462 143.113 38.5744C143.141 38.6027 143.76 38.7721 144.519 38.9697C145.265 39.1815 146.756 39.6615 147.825 40.0709C151.088 41.285 153.648 42.1461 154.576 42.3296C155.322 42.4849 155.462 42.5555 155.462 42.7955C155.462 42.9649 155.659 43.2896 155.884 43.5437C156.194 43.8967 156.475 44.0237 157.136 44.1508C159.133 44.5178 160.821 45.3507 164.014 47.5813C165.196 48.4001 166.293 49.1201 166.433 49.1624C166.588 49.2048 167.024 49.8259 167.432 50.5459C167.84 51.2659 169.697 54.1317 171.567 56.941C175.379 62.6303 176.715 65.0867 177.587 68.009C178.094 69.7031 178.53 71.9195 178.53 72.823V73.3454L176.954 72.6395C167.474 68.4184 160.568 63.8868 145.546 52.0423C143.071 50.0942 139.653 47.4401 137.951 46.1554C134.955 43.8967 134.547 43.4873 134.913 43.1202C135.236 42.7955 135.011 42.6261 133.534 42.0473C132.704 41.7226 131.734 41.2567 131.396 41.0167L130.777 40.565L131.382 40.4238C133.661 39.9297 138.401 42.372 145.251 47.5672C148.233 49.8259 150.652 51.52 151.918 52.2117C152.185 52.367 152.354 52.5929 152.41 52.8894C152.466 53.1717 152.748 53.5529 153.17 53.9341C153.535 54.2588 154.182 54.8799 154.618 55.3176C155.04 55.7411 155.715 56.2775 156.095 56.5034C157.375 57.2375 159.147 58.4234 161.862 60.301C165.899 63.0962 167.291 63.9715 169.542 65.1009C171.356 66.0185 174.676 67.2749 174.83 67.1055C174.859 67.0773 174.676 66.8091 174.423 66.5126C173.93 65.9479 172.636 65.2561 171.778 65.115C171.37 65.0444 171.103 64.8609 170.583 64.2538C169.739 63.2656 168.698 62.5739 167.643 62.3056C167.109 62.1645 166.56 61.8821 166.096 61.5151C164.647 60.3574 160.948 57.5622 158.416 55.727C152.044 51.0682 148.289 47.9766 145.87 45.3366C145.56 44.9978 145.223 44.7155 145.124 44.7155C144.772 44.7155 142.156 43.3037 140.412 42.1743C138.077 40.6497 136.108 39.7038 134.561 39.3226C133.422 39.0403 133.253 38.9556 132.676 38.3627C131.748 37.3886 130.777 36.7251 128.063 35.2004C124.743 33.3228 123.351 32.151 122.577 30.5699C122.436 30.2452 121.916 29.7511 121.199 29.2146C118.217 26.9982 116.388 24.6406 111.508 16.6926C108.877 12.4009 106.556 9.42216 105.867 9.42216C105.276 9.42216 104.531 9.02689 103.771 8.3069C102.97 7.54456 102.337 7.34692 101.282 7.51633C100.1 7.69984 99.3268 8.05278 97.7655 9.11159C95.8245 10.4104 95.079 10.721 93.8412 10.721C92.7019 10.721 92.2237 10.5233 90.789 9.45039C89.4528 8.46219 88.3838 7.91161 87.3711 7.72809C86.274 7.51633 85.641 7.68573 84.4736 8.49042C83.8969 8.88571 83.1092 9.39394 82.7295 9.63393C82.1528 9.98686 81.8574 10.3398 81.0275 11.6809C80.4087 12.655 79.6351 13.6715 79.0865 14.222C78.4958 14.8009 78.0597 15.3797 77.905 15.775C76.8782 18.4149 75.5561 19.9537 71.4208 23.2571C68.8749 25.29 67.7638 26.2924 66.948 27.2806C66.5119 27.8029 65.9071 28.3253 65.3445 28.6499C63.4738 29.737 61.364 31.4311 58.5368 34.071C53.6983 38.6168 52.9387 39.1815 48.916 41.2567C46.131 42.6826 44.2744 43.8402 43.557 44.5884L43.1491 45.026L43.7117 44.9272C44.851 44.7296 45.9904 44.3908 47.1578 43.9108C49.5208 42.9367 51.2087 41.8638 55.8081 38.3627C57.51 37.0639 59.3807 35.6945 59.9574 35.2992C60.5341 34.9039 61.9688 33.7039 63.1222 32.6451C67.9185 28.2405 71.041 25.8971 74.262 24.2595C75.1763 23.8077 75.4154 23.6101 75.6967 23.1018C76.7376 21.196 78.3692 18.8525 79.8179 17.1443C80.3243 16.5373 80.9713 15.5067 81.562 14.3491C83.1796 11.1727 84.558 10.0292 87.0335 9.87392L88.201 9.80333L89.059 10.5233C90.7187 11.9209 91.9143 12.3868 93.785 12.4009C95.5291 12.415 95.9792 12.2456 98.075 10.8339C99.2565 10.0433 99.9738 9.70451 100.494 9.70451C100.86 9.70451 100.733 10.0998 100.072 11.088C99.805 11.4833 99.6222 11.8645 99.6644 11.9068C99.8472 12.0903 100.607 11.6386 100.972 11.1304C101.183 10.848 101.38 10.5939 101.394 10.5657C101.479 10.4668 101.873 10.8621 101.873 11.0598C101.873 11.1586 101.605 11.5398 101.282 11.9209L100.705 12.5986L101.465 12.7115C101.887 12.768 102.632 12.768 103.124 12.7256C104.109 12.6268 104.053 12.5562 103.757 13.5162C103.645 13.855 103.729 13.855 104.601 13.6009C105.347 13.375 105.614 13.4174 105.825 13.8268C106.022 14.1938 105.755 14.5044 105.248 14.5044C104.419 14.5044 104.686 15.3797 105.67 15.8738C106.331 16.2126 107.203 16.2973 107.654 16.0573C108.005 15.8597 108.005 16.0855 107.64 16.4102C107.33 16.6926 107.274 17.1161 107.513 17.2714C107.597 17.3138 107.907 17.2432 108.202 17.1161C109.271 16.6361 109.482 17.2432 108.54 18.1184C108.033 18.5984 107.921 19.0784 108.287 19.2196C108.526 19.3184 109.187 19.0078 109.454 18.6831C109.679 18.4149 110.171 18.3867 110.171 18.6266C110.171 18.7255 109.932 18.9372 109.637 19.0925C109.229 19.3184 109.13 19.4596 109.159 19.7278C109.201 20.1654 109.215 20.1796 109.96 20.2502C110.678 20.3349 110.79 20.589 110.242 20.9419C109.538 21.3936 109.96 21.8878 110.72 21.5066C111.268 21.2101 111.986 21.2101 112.098 21.5066C112.14 21.6336 112.014 21.9019 111.733 22.1842C111.015 22.9324 111.184 23.1866 112.408 23.1866C113.364 23.1866 113.603 23.4548 113.153 24.0336C112.844 24.4289 112.745 25.0077 112.956 25.1488C113.027 25.1912 113.378 25.1206 113.758 25.0077C114.546 24.7818 115.024 24.8524 114.883 25.2053C114.489 26.2359 114.827 26.7865 115.854 26.7865C116.43 26.7865 116.487 26.8147 116.571 27.2241C116.627 27.4641 117.176 28.41 117.795 29.3276C118.667 30.6264 118.934 31.1346 118.99 31.6287C119.061 32.1652 119.131 32.2781 119.567 32.5181C119.834 32.6593 120.228 32.9416 120.453 33.1534C120.805 33.4922 120.833 33.5769 120.763 34.3533C120.636 35.7086 120.861 36.2027 122.211 37.685C123.041 38.5744 123.745 39.5485 124.42 40.692C124.954 41.6238 125.84 43.1343 126.375 44.0378C128.035 46.8895 129.385 48.4001 134.505 53.1153C136.98 55.4023 139.132 57.5481 140.482 59.0445C142.845 61.6986 144.111 62.8421 145.419 63.5197C146.249 63.9574 146.348 64.0562 146.784 64.9314L147.234 65.8914H147.979C148.725 65.8914 148.725 65.8914 148.978 66.4985C149.119 66.8232 149.287 67.3032 149.344 67.5573C149.442 68.009 149.442 68.009 150.314 68.009C151.636 68.009 151.833 68.3478 151.032 69.1808C150.764 69.4631 150.539 69.7455 150.539 69.8302C150.539 70.056 151.003 70.1266 151.524 69.9855C152.326 69.7596 153.071 69.8019 153.071 70.0843C153.071 70.2113 153.141 70.536 153.24 70.7901C153.395 71.2278 153.451 71.256 154.112 71.256C154.759 71.256 154.843 71.2984 155.448 71.9619C155.94 72.4983 156.236 72.696 156.63 72.7666C157.052 72.823 157.15 72.8936 157.08 73.0771C156.798 73.7548 156.7 74.1077 156.784 74.1783C156.939 74.3336 157.685 74.2348 158.149 73.9948C158.613 73.7689 158.613 73.7689 158.936 74.1642C159.372 74.7148 159.344 74.9265 158.768 75.3924C158.5 75.6041 158.275 75.8441 158.275 75.9288C158.275 76.0277 158.782 76.0559 159.682 76.0277C160.456 75.9994 161.088 75.9994 161.088 76.0277C161.088 76.0559 160.92 76.2959 160.709 76.5641C160.399 76.9876 160.371 77.0865 160.54 77.1994C160.948 77.4676 161.426 77.4959 162.157 77.2982C163.297 76.9735 163.564 77.4253 162.706 78.23C162.439 78.4982 162.214 78.8088 162.214 78.9358C162.214 79.1335 162.312 79.1617 162.889 79.0911C163.494 79.0064 163.606 79.0488 164.253 79.5005C164.788 79.8958 165.097 80.0087 165.547 80.0087H166.124L166.068 80.5311C165.969 81.3358 166.11 81.4487 166.898 81.1805C167.46 80.997 167.657 80.9828 168.192 81.1381C168.937 81.3499 169.823 82.2393 170.076 83.0157L170.259 83.5381H171.159C172.13 83.5381 172.214 83.6228 171.891 84.3145C171.806 84.5122 171.778 84.7098 171.82 84.7663C171.975 84.9216 172.721 84.8369 173.143 84.6251C173.354 84.5122 173.705 84.3851 173.93 84.3286C174.31 84.2439 174.31 84.2439 174.31 84.9075V85.5851H175.759C177.039 85.5851 177.278 85.6274 177.897 85.9521L178.6 86.3192L178.558 87.2933C178.544 87.8297 178.361 89.0438 178.178 90.0038C177.7 92.3332 177.63 93.1943 177.812 94.1825C177.897 94.6484 177.939 95.0578 177.897 95.086C177.77 95.2131 176.026 94.3802 174.985 93.7025C174.423 93.3214 173.143 92.3332 172.13 91.5144C169.95 89.6932 168.965 89.0156 167.727 88.4368C167.01 88.1121 166.419 87.6603 165.238 86.5168C164.394 85.6839 162.143 83.7216 160.245 82.1263C156.489 78.9782 153.577 76.1547 152.368 74.503C151.946 73.9101 150.736 72.6395 149.625 71.6231C141.34 63.9574 134.884 57.3363 130.229 51.7035C125.024 45.4213 120.481 38.5038 117.246 31.9675C116.67 30.8099 116.177 29.8923 116.149 29.9205C116.051 30.0193 116.501 32.024 116.866 33.1393C117.373 34.6498 118.428 36.8239 120.552 40.6356C124.096 47.0448 126.009 49.84 129.202 53.2847C130.004 54.1599 130.819 55.1764 131.03 55.5717C131.537 56.4752 146.052 71.129 148.725 73.416C149.78 74.3195 150.792 75.2936 150.975 75.59C152.494 78.117 155.054 80.6017 160.245 84.5969C162.706 86.4886 164.844 88.2956 165.927 89.4109C166.335 89.8344 166.771 90.1732 166.912 90.1732C167.038 90.1732 167.573 90.3991 168.107 90.6673C168.628 90.9355 169.134 91.1614 169.232 91.1614C169.331 91.1614 169.753 91.5002 170.161 91.9238C170.569 92.3332 171.441 92.9967 172.088 93.392C173.565 94.2813 174.521 95.1284 174.887 95.8343C175.084 96.2295 175.252 96.3848 175.492 96.3848C176.012 96.3848 177.489 97.2036 177.981 97.7683C179.852 99.9 179.669 104.262 177.517 108.399C176.757 109.881 175.703 111.208 175.309 111.208C174.957 111.208 174.634 110.799 174.521 110.22C174.451 109.825 174.254 109.599 173.565 109.09C170.54 106.874 166.251 102.766 160.034 96.1025C158.177 94.1261 155.476 91.3167 154.028 89.8767C152.565 88.4368 151.383 87.1945 151.383 87.1239C151.383 86.8274 150.047 84.9498 149.006 83.8204C147.375 82.0275 146.46 80.8981 144.899 78.8088C143.521 76.9594 142.142 75.3359 139.484 72.456C136.432 69.1243 134.884 67.0208 133.689 64.522C133.098 63.2797 132.859 62.955 132.001 62.1503C130.637 60.8798 129.427 59.3269 126.923 55.5999C125.742 53.8494 124.406 51.9435 123.941 51.3647C123.323 50.5741 122.83 49.6989 122.113 48.1036C121.578 46.9036 119.651 42.9226 117.837 39.2662C115.193 33.9581 114.532 32.5181 114.532 32.0663C114.532 31.4311 114.25 30.9511 113.828 30.8381C113.575 30.7675 113.547 30.8381 113.547 31.4593C113.547 32.1934 113.955 33.6051 114.349 34.2545C114.475 34.4522 114.771 34.8192 114.982 35.0592C115.305 35.4121 115.488 35.8921 115.868 37.3886C117.288 43.0496 118.906 46.3672 124.828 55.7411C126.178 57.8728 127.669 60.301 128.161 61.1621C129.103 62.8421 129.554 63.3503 130.088 63.3503C130.383 63.3503 130.426 63.4068 130.426 63.8585C130.426 64.2538 130.524 64.4515 130.876 64.7338C132.367 66.0044 132.592 66.2726 133.281 67.6984C133.998 69.1666 134.73 70.0702 135.306 70.2113C135.56 70.2819 135.602 70.3666 135.531 70.7054C135.363 71.5666 135.813 72.1031 136.685 72.1031C136.994 72.1031 137.036 72.1736 137.05 72.6677C137.065 72.9783 137.079 73.303 137.093 73.3877C137.093 73.4583 137.515 73.8677 138.021 74.263C139.16 75.1947 139.892 76.1547 140.201 77.1288L140.44 77.8912H141.101H141.777L141.762 78.4841C141.748 79.0629 141.777 79.0911 142.649 79.684C143.76 80.404 143.872 80.5734 143.577 81.124C143.155 81.9711 143.338 82.2675 144.294 82.2675C144.744 82.2675 144.801 82.324 145.054 82.8887C145.349 83.5804 145.757 83.8769 146.263 83.7781C146.685 83.7075 146.685 83.7498 146.249 84.2722C146.052 84.4981 145.926 84.738 145.968 84.8086C145.996 84.8651 146.376 85.091 146.812 85.2886C147.642 85.698 147.909 86.1639 147.6 86.658C147.515 86.7992 147.445 86.9403 147.445 86.9545C147.445 86.9827 147.923 86.9686 148.514 86.9545C149.513 86.9121 149.583 86.9262 149.484 87.1662C149.414 87.3074 149.358 87.6744 149.358 87.985C149.344 88.5497 149.344 88.5497 150.455 89.1426C151.876 89.9191 152.185 90.2014 152.298 90.9355C152.424 91.6414 152.551 91.8108 153.226 92.1496C153.577 92.3332 153.887 92.672 154.182 93.2084C154.548 93.8578 154.745 94.0414 155.293 94.2813C156.362 94.719 156.377 94.7331 156.334 95.3825C156.292 95.9048 156.334 95.9754 156.742 96.2295C156.995 96.3848 157.389 96.5542 157.6 96.5966C158.008 96.6954 158.078 96.7942 157.867 97.0342C157.685 97.2319 157.572 97.853 157.685 98.0366C157.741 98.1354 158.191 98.2201 158.697 98.2483C159.752 98.2907 159.893 98.5024 159.387 99.1942C158.88 99.8859 159.091 100.112 160.16 100.027C161.609 99.9 161.862 100.267 161.004 101.213C160.357 101.947 160.484 102.074 161.961 102.173C162.636 102.215 163.128 102.314 163.156 102.413C163.184 102.498 163.015 102.794 162.776 103.076C161.946 104.008 162.411 104.46 163.831 104.121C165.238 103.768 165.997 104.192 165.308 104.926C165.139 105.109 165.027 105.363 165.055 105.519C165.097 105.73 165.238 105.773 166.082 105.773C167.038 105.773 167.066 105.787 167.109 106.154C167.137 106.366 167.052 106.719 166.94 106.959C166.813 107.185 166.715 107.509 166.715 107.679C166.715 108.088 167.432 108.06 168.093 107.608C168.698 107.185 168.853 107.17 169.134 107.495C169.359 107.778 169.331 107.961 168.839 108.992C168.585 109.528 168.557 109.712 168.684 109.881C168.979 110.22 169.246 110.107 169.893 109.415C170.372 108.879 170.54 108.78 170.681 108.921C170.766 109.006 170.962 109.09 171.103 109.09C171.427 109.09 171.413 109.217 171.075 109.655C170.709 110.121 170.723 110.46 171.117 110.657C171.286 110.756 171.652 111.024 171.933 111.264C172.2 111.504 172.552 111.773 172.707 111.857C172.96 111.999 172.946 112.041 172.566 113.015C172.045 114.3 171.103 115.782 169.95 117.123C169.12 118.097 169.021 118.281 168.726 119.424C168.557 120.116 168.248 120.935 168.023 121.26C167.657 121.81 166.841 122.502 166.56 122.502C166.49 122.502 165.533 121.274 164.422 119.777C162.143 116.714 161.44 115.881 160.118 114.681C159.344 113.989 159.021 113.537 158.233 112.069C156.883 109.585 155.856 108.074 154.618 106.761C153.901 106.013 153.254 105.109 152.663 104.079C151.468 102.004 149.864 99.66 146.924 95.7354L144.491 92.4743V91.712C144.477 90.9638 144.463 90.9214 143.071 89.185C141.411 87.0956 140.553 85.8251 137.951 81.5617C135.728 77.9335 133.056 73.8395 131.495 71.6795C130.608 70.4513 130.426 70.0984 130.426 69.6608C130.426 68.9549 130.383 68.8843 126.262 61.995C120.341 52.0847 117.528 46.9601 117.682 46.3672C117.823 45.7884 117.485 44.2496 116.993 43.2331C116.74 42.6826 116.093 41.6379 115.572 40.9038C115.038 40.1697 114.349 39.0403 114.011 38.3909C113.491 37.4027 113.406 37.0921 113.406 36.3862C113.406 35.638 113.308 35.3557 112.562 33.8875C111.817 32.4052 109.834 29.4688 109.581 29.4688C109.426 29.4688 109.299 30.3017 109.398 30.7675C109.454 31.0075 109.693 31.6287 109.918 32.1369C110.143 32.6451 110.875 34.438 111.536 36.1039C112.956 39.7179 113.378 40.565 114.686 42.5555C115.952 44.4755 116.219 45.0966 116.219 46.0848C116.219 47.7507 118.259 51.8165 123.534 60.5974C126.923 66.2726 128.442 68.969 128.864 70.1407C129.174 70.9595 129.399 71.3548 131.199 74.2206C131.804 75.1947 132.592 76.5218 132.929 77.1853C133.59 78.4417 142.044 91.5002 147.009 98.9259C154.098 109.542 159.668 117.067 165.097 123.391L166.883 125.481L166.799 126.215C166.419 129.095 165.083 131.48 162.622 133.655C160.779 135.306 159.429 136.337 159.161 136.337C158.782 136.337 158.346 135.814 158.036 134.996C157.882 134.6 157.052 133.344 156.18 132.186C153.381 128.445 151.06 124.845 146.953 117.914C141.523 108.723 140.454 106.959 138.921 104.531C137.529 102.356 137.318 101.947 137.318 101.425C137.318 100.366 136.924 99.053 136.418 98.446C134.744 96.3707 133.337 93.8861 129.666 86.4321C128.091 83.2416 126.347 79.8958 125.798 78.9923C125.123 77.8629 124.659 76.8888 124.377 75.9853C123.801 74.2206 123.21 72.7948 121.072 68.1502C118.653 62.8986 117.893 61.0915 116.248 56.6305C115.474 54.5411 114.208 51.2377 113.434 49.3036C110.382 41.6238 110.171 41.0026 109.679 37.8686C109.426 36.2309 108.835 34.8616 108.188 34.3957L107.766 34.0992L107.836 34.5651C107.893 34.8333 108.047 35.8639 108.216 36.8803C108.694 39.972 109.538 43.6567 110.439 46.5507C111.184 48.9507 114.588 58.4092 115.966 61.868C117.049 64.6209 118.793 68.1643 119.862 69.8019L120.706 71.1148L120.467 71.7501C120.2 72.4842 120.298 72.7524 120.945 73.0913C121.171 73.2042 121.382 73.3171 121.41 73.3313C121.424 73.3454 121.283 73.5854 121.072 73.8536L120.692 74.3618L121.058 74.503C121.48 74.6583 121.705 75.1383 121.705 75.8583C121.705 76.3947 122.113 76.9029 122.549 76.9029C122.704 76.9029 122.83 76.9876 122.83 77.0865C122.83 77.1994 122.704 77.397 122.549 77.5382C122.394 77.6794 122.268 77.9476 122.268 78.1453C122.268 78.4841 122.296 78.4841 122.901 78.4135C123.505 78.3288 123.534 78.3288 123.759 78.837L124.012 79.3452L123.477 79.7688C122.985 80.164 122.971 80.1923 123.196 80.4464C123.365 80.644 123.632 80.7146 124.096 80.7146C124.56 80.7146 124.87 80.7993 125.137 81.0111C125.657 81.4205 125.573 81.844 124.884 82.1969C124.195 82.564 123.97 82.8887 124.181 83.2134C124.349 83.4675 124.659 83.4957 125.657 83.3122C126.108 83.2416 126.178 83.2698 126.248 83.5522C126.375 84.0181 126.178 84.2581 125.503 84.5122C124.785 84.7804 124.701 84.9357 125.039 85.3451C125.292 85.6416 125.306 85.6416 126.037 85.4298C126.445 85.3027 126.825 85.2463 126.867 85.2886C126.909 85.331 126.839 85.5286 126.712 85.7121C126.431 86.1498 126.417 86.7004 126.698 86.9262C126.811 87.0251 127.162 87.0956 127.472 87.0956C127.978 87.0815 128.035 87.1239 128.035 87.4345C128.035 87.7592 127.598 88.338 127.359 88.338C127.148 88.338 126.614 88.9168 126.698 89.0438C126.74 89.1144 127.317 89.3403 127.964 89.5379C129.005 89.8626 129.174 89.9615 129.258 90.272C129.329 90.5826 129.258 90.7238 128.907 91.0203C128.386 91.4438 128.358 91.5991 128.71 91.8955C129.103 92.2485 129.525 92.319 129.779 92.079C130.004 91.8391 130.285 91.8955 130.285 92.192C130.285 92.2767 130.116 92.5167 129.919 92.7284C129.441 93.2367 129.554 93.5614 130.215 93.5755C131.424 93.6178 131.579 93.9567 130.763 94.8602C130.369 95.3119 130.299 95.4531 130.44 95.6225C130.651 95.8766 131.087 95.8766 131.832 95.6084C132.156 95.4954 132.451 95.3966 132.465 95.3966C132.493 95.3966 132.535 95.5378 132.578 95.6931C132.634 95.919 132.55 96.1166 132.24 96.3989C131.832 96.7801 131.692 97.4154 131.973 97.5848C132.043 97.6272 132.296 97.5707 132.521 97.4436C133.14 97.133 133.422 97.1754 133.703 97.6695L133.956 98.1213L133.379 98.6436C132.986 99.0107 132.845 99.2365 132.901 99.4059C133.014 99.7024 133.52 99.9142 134.069 99.9142C134.533 99.9142 134.856 100.239 134.73 100.549C134.687 100.676 134.42 100.874 134.139 100.987C133.267 101.354 133.801 102.032 134.983 102.032H135.517L135.419 102.964C135.306 104.051 135.377 104.149 136.291 104.149C136.882 104.149 136.882 104.163 136.811 104.573C136.685 105.208 136.84 105.603 137.529 106.422C137.88 106.832 138.162 107.283 138.162 107.439C138.162 107.58 137.965 107.905 137.726 108.145C137.332 108.54 137.304 108.596 137.529 108.752C137.712 108.893 137.88 108.893 138.345 108.723C139.006 108.497 139.371 108.568 139.498 108.949C139.61 109.316 139.498 109.486 138.921 109.726C138.612 109.853 138.443 110.022 138.443 110.192C138.443 110.516 138.64 110.615 139.695 110.841C140.117 110.926 140.482 111.067 140.511 111.152C140.539 111.222 140.342 111.406 140.061 111.533C139.695 111.716 139.568 111.857 139.568 112.126C139.568 112.521 139.639 112.535 140.848 112.493C141.481 112.464 141.65 112.493 141.734 112.704C141.875 113.071 141.72 113.41 141.312 113.594C141.017 113.721 140.961 113.834 141.003 114.215L141.045 114.667L141.931 114.639C142.761 114.596 142.803 114.61 142.803 114.921C142.803 115.104 142.649 115.401 142.452 115.584C142.255 115.768 142.1 115.994 142.1 116.093C142.1 116.304 142.944 116.573 143.633 116.573C144.238 116.573 144.632 116.911 144.632 117.434C144.632 117.758 144.533 117.886 144.154 118.041C143.9 118.154 143.633 118.309 143.577 118.408C143.408 118.69 143.872 119.001 144.66 119.128C145.954 119.34 146.137 120.102 145.026 120.624C144.308 120.963 144.154 121.316 144.576 121.669C144.758 121.824 144.955 121.796 145.771 121.514C146.671 121.203 146.756 121.189 146.967 121.401C147.276 121.711 147.135 122.022 146.573 122.262C145.996 122.502 145.729 122.827 145.841 123.123C145.94 123.377 146.123 123.405 147.628 123.363L148.711 123.321V123.758C148.711 124.111 148.542 124.379 148.008 124.958C147.22 125.791 147.009 126.412 147.375 126.779C147.642 127.048 147.909 126.963 148.626 126.356C149.077 125.975 149.513 125.975 149.752 126.342C149.963 126.681 149.738 127.019 149.133 127.316C148.556 127.598 148.303 127.937 148.387 128.304C148.5 128.713 148.992 128.77 149.695 128.445C150.455 128.092 150.863 128.078 151.102 128.361C151.369 128.685 151.158 129.222 150.61 129.561C150.061 129.899 149.78 130.323 149.892 130.633C149.991 130.888 150.919 130.888 151.383 130.619C151.777 130.393 152.621 130.351 152.916 130.535C153.254 130.746 152.973 131.099 152.171 131.452C151.369 131.805 151.088 132.229 151.383 132.596C151.608 132.864 152.03 132.864 152.79 132.596C153.113 132.483 153.479 132.384 153.577 132.384C153.929 132.384 153.774 132.793 153.282 133.175C152.888 133.471 152.79 133.64 152.79 134.036C152.79 134.615 153.043 134.742 153.62 134.445C153.845 134.318 154.239 134.219 154.478 134.219C155.082 134.219 155.054 134.727 154.407 135.349C153.915 135.829 153.76 136.323 154.098 136.351C154.323 136.379 154.309 136.379 155.012 136.125C156.25 135.687 156.053 136.054 154.14 137.819C153.141 138.751 151.102 140.699 149.625 142.167C146.657 145.104 146.854 145.005 145.898 144.059C145.265 143.438 144.899 142.718 144.125 140.643C143.76 139.626 142.522 136.958 141.383 134.713C138.879 129.758 138.302 128.403 137.247 125.114C136.347 122.248 135.869 121.02 133.07 114.314C130.594 108.356 129.047 104.799 127.767 102.116C127.219 100.959 126.572 99.3777 126.333 98.5871C125.348 95.3543 124.462 92.9402 122.127 87.0674C121.185 84.6957 119.919 81.4205 119.3 79.7829C118.695 78.1453 117.935 76.1406 117.612 75.3359C116.641 72.8936 116.093 71.1572 115.572 68.7855C114.883 65.6091 114.7 64.9879 112.97 59.821C112.126 57.294 111.156 54.1317 110.818 52.7906C110.34 50.9412 109.96 49.8542 109.243 48.273C108.399 46.4095 108.202 45.7743 107.274 42.0614C106.134 37.4733 105.516 35.4545 104.7 33.7887C104.123 32.5887 104.095 32.5887 103.912 33.8592C103.743 35.1721 104.193 36.9509 105.389 39.7179C106.5 42.259 106.796 43.219 106.95 44.8566C107.232 47.9342 107.358 48.6542 108.047 50.8565C108.427 52.0988 109.257 54.8658 109.89 56.9975C110.523 59.1292 111.395 61.8962 111.817 63.1385C114.968 72.343 116.135 76.0559 117.26 80.404C117.767 82.3805 118.076 83.2134 119.131 85.5145C124.265 96.6248 126.262 101.552 129.722 111.561C131.734 117.377 133.829 122.234 134.73 123.123C135.18 123.589 135.349 123.914 135.545 124.69C136.333 127.669 137.838 131.269 140.862 137.466C142.93 141.687 144.772 145.824 145.265 147.334C145.56 148.252 145.476 148.478 144.393 149.466C143.492 150.285 141.861 151.146 139.02 152.275C136.755 153.193 135.672 153.701 135.039 154.153C134.645 154.421 134.645 154.421 134.223 154.125C133.703 153.758 133.408 153.193 132.775 151.372C132.507 150.595 131.635 148.28 130.848 146.219C126.951 136.069 125.32 130.958 124.223 125.396C123.913 123.758 123.393 122.502 123.041 122.502C122.929 122.502 122.83 122.46 122.83 122.417C122.83 122.163 120.664 112.592 120.313 111.279C120.087 110.417 119.609 108.639 119.258 107.326C118.47 104.432 118.484 104.46 116.824 100.422C115.207 96.4978 114.714 95.0296 113.955 91.7826C113.631 90.385 113.027 87.8156 112.619 86.051C112.197 84.2863 111.479 80.884 111.001 78.4982C110.537 76.1124 109.974 73.1901 109.735 72.0325C109.51 70.8607 108.723 67.4726 107.991 64.4797C106.12 56.8281 104.742 50.2777 103.265 42.2167C102.998 40.7908 102.745 39.6332 102.688 39.6332C102.492 39.6332 102.576 44.8143 102.787 46.946C103.307 51.9012 104.672 59.5104 105.867 63.9997C107.049 68.4325 107.203 69.1949 107.429 71.9619C107.654 74.6159 107.752 75.0677 108.329 75.7736C108.694 76.2394 108.723 76.31 108.54 76.6347C108.301 77.0723 108.287 77.9194 108.54 78.4982C108.638 78.7523 108.976 79.2746 109.285 79.6699C109.792 80.3052 109.834 80.404 109.665 80.644C109.271 81.1805 109.426 81.9852 110.228 83.5381L110.987 85.0063L110.65 85.2745C110.199 85.6133 110.228 85.7263 110.804 86.3757C111.339 86.9686 111.437 87.505 111.086 87.9709C110.776 88.3944 110.832 88.705 111.297 89.0862C111.817 89.5238 111.831 89.792 111.367 90.0885C110.692 90.5261 110.959 90.992 112.014 91.2179C112.745 91.3732 112.576 92.3473 111.817 92.4602C111.648 92.4885 111.493 92.6155 111.465 92.7567C111.423 92.9402 111.62 93.0955 112.197 93.3637C113.406 93.9143 113.519 94.4931 112.478 94.8319C112.197 94.9307 111.929 95.1284 111.873 95.3119C111.676 95.8343 111.831 95.9895 112.619 95.9472C113.027 95.9331 113.434 95.9613 113.519 96.0178C113.842 96.2154 113.688 96.7095 113.111 97.2178C112.464 97.8248 112.52 97.9519 113.547 98.2201C114.785 98.5307 114.982 99.0107 114.11 99.5895C113.35 100.084 113.266 100.182 113.266 100.535C113.266 100.945 113.491 101.044 114.391 101.044C115.629 101.044 115.952 101.891 114.954 102.526C114.644 102.724 114.391 102.978 114.391 103.091C114.391 103.203 114.757 103.486 115.221 103.712C115.671 103.952 116.079 104.234 116.135 104.361C116.29 104.799 116.219 104.996 115.91 104.996C114.996 105.011 114.503 105.547 114.897 106.112C115.08 106.366 115.249 106.408 116.023 106.408C116.895 106.408 116.923 106.422 116.923 106.761C116.923 107.015 116.768 107.213 116.36 107.467C115.868 107.778 115.812 107.862 115.938 108.102C116.135 108.469 116.627 108.78 117.176 108.893C117.795 109.02 117.809 109.542 117.204 109.796C116.684 110.022 116.501 110.319 116.599 110.827C116.67 111.194 116.712 111.208 117.485 111.208C118.273 111.208 118.315 111.236 118.526 111.646C118.793 112.182 118.751 112.267 118.006 112.634C116.698 113.297 116.684 113.749 117.964 113.749C118.751 113.749 119.131 113.947 119.201 114.37C119.229 114.596 119.131 114.681 118.653 114.78C118.118 114.879 118.048 114.935 118.048 115.288C118.048 115.754 118.203 115.909 118.92 116.135C119.384 116.29 119.595 116.516 119.595 116.869C119.595 116.94 119.342 116.996 119.019 116.996C118.484 116.996 118.456 117.01 118.498 117.391C118.526 117.702 118.695 117.857 119.384 118.196C119.862 118.436 120.242 118.733 120.27 118.874C120.341 119.241 120.045 119.537 119.581 119.537C119.272 119.537 119.173 119.608 119.173 119.805C119.173 120.158 119.469 120.384 120.073 120.483C120.355 120.525 120.58 120.582 120.58 120.61C120.58 120.638 120.481 120.878 120.355 121.147C120.017 121.838 120.172 122.29 120.861 122.587C121.607 122.925 121.635 123.391 120.931 123.73C120.439 123.97 120.172 124.45 120.369 124.747C120.411 124.831 120.749 124.902 121.114 124.902C122.029 124.902 122.38 125.029 122.493 125.368C122.563 125.594 122.479 125.763 122.141 126.059C121.789 126.384 121.564 126.455 121.002 126.455C120.341 126.455 120.298 126.483 120.298 126.822C120.298 127.274 120.974 127.584 122.029 127.584C122.465 127.584 122.887 127.669 123.055 127.782C123.294 127.979 123.308 128.008 123.098 128.219C122.985 128.346 122.661 128.558 122.394 128.685C121.86 128.953 121.705 129.405 122.057 129.702C122.183 129.801 122.605 129.956 122.999 130.041C123.674 130.196 123.702 130.224 123.477 130.45C123.337 130.577 123.069 130.732 122.858 130.775C122.141 130.93 121.846 131.099 121.846 131.396C121.846 131.692 122.366 132.003 123.126 132.158C123.477 132.229 123.505 132.285 123.477 132.977C123.463 133.697 123.463 133.697 124.096 134.078C124.94 134.572 124.926 134.897 124.04 135.349C123.224 135.758 123.126 135.927 123.519 136.323C123.759 136.563 123.998 136.619 124.659 136.619C125.461 136.619 125.503 136.633 125.503 136.972C125.503 137.24 125.376 137.382 124.982 137.565C124.42 137.833 124.237 138.313 124.504 138.737C124.631 138.92 124.715 138.92 125.109 138.751C125.967 138.398 126.136 138.454 126.178 139.118C126.22 139.598 126.164 139.739 125.925 139.866C125.77 139.951 125.503 139.979 125.362 139.937C125.165 139.866 125.081 139.909 125.081 140.078C125.081 140.431 125.7 140.967 126.304 141.123C126.6 141.207 126.966 141.363 127.12 141.476C127.373 141.659 127.373 141.687 127.148 142.026C127.022 142.224 126.614 142.563 126.248 142.774C125.868 142.986 125.559 143.184 125.531 143.198C125.503 143.212 125.559 143.367 125.643 143.537C125.798 143.819 125.897 143.833 126.881 143.791L127.964 143.748V144.313C127.964 144.85 127.95 144.878 127.303 145.061C126.431 145.301 126.389 145.668 127.191 146.078C127.795 146.388 128.245 146.445 128.386 146.219C128.527 145.993 128.878 146.332 128.78 146.586C128.738 146.685 128.499 146.911 128.231 147.08C127.289 147.659 127.753 148.619 128.977 148.619C129.765 148.619 129.779 148.901 128.991 149.706C128.245 150.468 128.386 150.68 129.694 150.807C131.016 150.934 131.227 150.991 131.326 151.245C131.565 151.88 130.932 152.289 129.75 152.289C129.132 152.289 129.132 152.289 129.329 152.614C129.455 152.784 129.891 153.052 130.355 153.207C130.805 153.362 131.199 153.56 131.227 153.645C131.298 153.842 129.75 154.266 127.162 154.76C124.293 155.296 122.127 156.059 121.578 156.722C121.466 156.849 121.339 156.948 121.283 156.948C121.114 156.948 120.355 155.282 119.961 154.054C119.426 152.445 118.962 150.017 118.47 146.29C117.739 140.784 117.246 138.186 116.641 136.393C116.304 135.419 116.29 134.742 116.585 134.502C117.092 134.064 117.092 133.838 116.585 132.553C115.376 129.518 114.743 126.384 113.758 118.761C112.802 111.363 112.436 109.302 111.156 104.502C109.806 99.3918 109.384 97.2883 109.243 94.8319L109.145 93.3073L109.524 92.9402L109.918 92.5873L109.37 92.3049C109.06 92.1496 108.737 91.9379 108.638 91.8249C108.357 91.472 105.797 76.4371 104.545 67.7267C103.856 62.9268 103.392 60.061 101.662 50.0094C100.157 41.2426 99.7628 38.0238 99.805 35.0874L99.8331 33.0263L99.4112 32.4193C98.7501 31.4875 98.6376 31.544 98.6376 32.7581C98.6376 40.7626 101.057 59.5104 104.7 79.5852C106.725 90.7944 106.725 90.7661 107.625 93.6037C108.483 96.2719 108.596 96.8648 108.694 99.4624C108.807 102.201 109.13 104.036 110.298 108.921C111.508 113.919 111.634 114.624 112.759 122.078C114.391 132.765 116.402 144.723 118.329 154.972C118.709 157.033 119.033 158.755 119.033 158.812C119.033 158.967 117.626 159.729 116.445 160.195C113.111 161.536 109.257 161.833 106.289 160.957L105.572 160.76L105.487 157.259C105.192 146.205 104.165 135.264 100.944 109.09C100.269 103.556 99.4252 96.2295 98.8345 90.6673C98.3985 86.658 98.3141 85.3027 98.2156 80.8558C98.1593 77.9759 97.9765 74.0795 97.8077 72.0325C96.7528 58.8751 96.6403 57.0258 96.5981 52.7623C96.5559 48.3718 96.5137 47.4401 96.1761 44.5743C95.9229 42.4849 95.6276 40.9885 95.1493 39.5062C94.6992 38.0662 94.6711 38.1368 94.4179 41.3414C94.1507 44.8425 94.2913 48.8518 94.7555 50.8565C95.2056 52.7623 95.2056 52.9176 94.7696 53.327C94.3617 53.7082 94.3335 53.9764 94.6289 54.9505C94.7836 55.4446 94.8399 56.2352 94.8258 57.6751C94.8258 59.5528 94.8399 59.7645 95.1634 60.3998L95.501 61.0915H95.1212C94.2632 61.0915 94.1929 61.868 95.0227 62.2633C95.4025 62.4609 95.5432 62.6162 95.5432 62.8562C95.5432 63.2656 95.2056 63.6327 94.8258 63.6327C94.4742 63.6327 94.4883 63.6891 94.9805 64.4091C95.5713 65.2703 95.5713 65.5808 95.0087 65.9761L94.5445 66.3008L95.2478 66.8091C95.6416 67.0914 95.9651 67.3596 95.9651 67.402C95.9651 67.4302 95.7119 67.7267 95.3884 68.0373L94.8118 68.602L95.2618 68.9831L95.6979 69.3502L95.4728 70.0843C95.2618 70.776 95.2759 70.8325 95.5432 71.2842C95.6979 71.5384 95.8948 72.0748 95.9792 72.4842C96.1339 73.1477 96.1199 73.2607 95.8948 73.5148C95.7541 73.6701 95.5572 73.7971 95.4447 73.7971C95.304 73.7971 95.3322 73.9524 95.5713 74.3901C95.8526 74.9265 95.8948 75.2794 95.9651 77.4676C96.0355 79.7123 96.0636 79.9946 96.359 80.4887C96.7528 81.1522 96.6825 81.4205 96.1058 81.4205C95.4728 81.4205 95.5291 81.9428 96.2464 82.5922C96.9778 83.2416 97.006 83.6792 96.3308 83.6792C96.0636 83.6792 95.7963 83.7498 95.7541 83.8345C95.6979 83.9051 95.9229 84.371 96.2324 84.8369C97.006 85.9945 96.9778 86.4039 96.1058 86.5309C95.8385 86.5592 95.7541 86.658 95.7541 86.9121C95.7541 87.1803 95.9089 87.3497 96.3871 87.6321C97.3717 88.2109 97.5545 89.185 96.6684 89.185C96.1058 89.185 96.0073 89.4815 96.373 90.0744C96.7809 90.7379 96.7528 91.0061 96.2464 91.1755C96.0214 91.2602 95.8245 91.3873 95.8245 91.4579C95.8245 91.6696 96.3449 92.1214 96.9638 92.432L97.5405 92.7426L97.1888 93.1096C96.4152 93.9284 96.4434 94.5213 97.2732 94.8319C97.8218 95.0296 97.7233 95.3966 97.0482 95.7354C96.359 96.0742 96.3871 96.4837 97.1185 96.8789C97.8358 97.2601 97.8218 97.613 97.0904 97.9095C96.2886 98.2201 96.359 98.6436 97.231 98.8554C97.7233 98.9824 97.8921 99.0954 98.0046 99.4059C98.1593 99.8577 97.9624 100.055 97.3435 100.055C96.7809 100.055 96.8231 100.564 97.4561 101.312L97.9765 101.905L97.5827 102.314L97.2029 102.709L97.4983 103.006C97.6811 103.189 97.9765 103.302 98.2859 103.302C98.6798 103.302 98.7782 103.359 98.7782 103.571C98.7782 103.923 98.4125 104.291 98.075 104.291C97.9343 104.291 97.6952 104.403 97.5264 104.531C97.2732 104.756 97.2592 104.827 97.4139 105.123C97.4983 105.321 97.864 105.674 98.2156 105.914C98.9048 106.394 99.2283 107.001 98.947 107.283C98.8626 107.368 98.4407 107.439 97.9906 107.425C97.3295 107.41 97.217 107.439 97.2873 107.622C97.3295 107.749 97.3717 107.905 97.3717 107.975C97.3717 108.046 97.7233 108.328 98.1453 108.596C98.5672 108.865 98.9892 109.232 99.0736 109.387C99.3268 109.867 99.0314 110.319 98.3281 110.516C97.5827 110.728 97.3717 110.883 97.3717 111.222C97.3717 111.575 97.5686 111.66 98.5532 111.759C99.2705 111.829 99.4112 111.886 99.4534 112.126C99.5237 112.606 99.158 112.93 98.4547 113.001C97.3717 113.128 97.4139 113.58 98.5391 114.003C99.7628 114.469 99.7628 115.02 98.5391 115.316C97.7655 115.514 97.5264 115.881 97.9343 116.29C98.1312 116.488 98.3985 116.573 98.8908 116.573C99.9738 116.573 100.536 117.194 99.9457 117.744C99.805 117.857 99.3268 118.097 98.8767 118.267L98.0609 118.577L98.3985 119.015C98.933 119.721 99.4252 120.017 100.044 120.031C100.55 120.031 100.607 120.06 100.607 120.398C100.607 120.681 100.508 120.808 100.185 120.935C99.9597 121.02 99.58 121.161 99.3549 121.245C98.4547 121.584 98.7079 122.248 99.8753 122.587C100.311 122.714 100.776 122.897 100.888 123.01C101.197 123.307 100.902 123.659 100.185 123.871C99.4112 124.097 99.2002 124.281 99.2002 124.775C99.2002 125.269 99.3127 125.339 100.34 125.424C101.296 125.523 101.535 125.763 101.38 126.469C101.268 126.949 101.183 126.963 100.311 126.652C99.383 126.314 99.2002 126.426 99.2002 127.358C99.2002 128.389 99.4815 128.713 100.396 128.812C101.648 128.925 101.732 128.968 101.732 129.405C101.732 129.984 101.423 130.153 100.255 130.238C99.2846 130.295 99.2002 130.323 99.2002 130.605C99.2002 131.071 99.5659 131.48 100.325 131.904C101.183 132.37 101.24 132.709 100.536 133.005C99.9457 133.259 99.8472 133.471 100.044 134.007C100.185 134.389 100.227 134.389 100.916 134.318C101.746 134.219 102.154 134.389 102.154 134.84C102.154 135.264 101.76 135.603 101.155 135.716C100.508 135.843 100.044 136.153 100.044 136.464C100.044 136.859 100.34 137.029 101.254 137.127C102.351 137.254 102.576 137.382 102.576 137.89C102.576 138.384 102.266 138.511 101.38 138.37C100.958 138.313 100.677 138.341 100.536 138.454C100.255 138.694 100.255 139.852 100.55 140.276C100.747 140.544 100.874 140.586 101.366 140.544C103.012 140.36 102.97 141.25 101.31 141.8C100.663 142.012 100.522 142.111 100.494 142.421C100.438 142.93 100.832 143.212 101.83 143.381C102.885 143.551 103.279 143.748 103.279 144.087C103.279 144.511 102.942 144.68 101.887 144.793C100.804 144.906 100.382 145.16 100.522 145.612C100.663 146.035 101.408 146.388 102.379 146.473C103.251 146.544 103.279 146.544 103.279 146.939C103.279 147.461 102.942 147.631 101.957 147.631C101.338 147.631 101.169 147.673 101.169 147.857C101.169 148.28 101.465 148.619 102.154 148.972C102.534 149.155 102.885 149.381 102.928 149.466C103.096 149.748 102.576 150.129 101.901 150.228C100.888 150.369 100.832 150.44 101.183 151.231C101.465 151.852 101.479 152.064 101.394 153.758C101.282 155.861 101.408 156.327 102.252 156.892C102.703 157.202 102.717 157.202 102.463 157.513C102.295 157.71 102.041 157.838 101.76 157.852C101.507 157.852 101.31 157.936 101.31 158.021C101.31 158.289 101.957 158.783 102.618 159.009C102.984 159.136 103.279 159.277 103.279 159.348C103.279 159.405 103.012 159.574 102.688 159.715C102.168 159.927 101.493 159.983 98.2156 160.054C95.9511 160.11 94.1929 160.209 93.9819 160.308L93.6021 160.463L93.4896 156.694C93.4193 154.619 93.3911 144.948 93.4333 135.207C93.5459 106.422 93.5037 87.9991 93.3208 78.597C93.2224 73.7407 93.0817 66.4985 93.0114 62.5033C92.8988 55.6846 92.8707 54.9223 92.3925 50.2777C91.9002 45.2943 91.7595 42.372 91.9565 40.2685C92.069 38.9697 91.9002 38.1368 91.4079 37.558L91.0844 37.1909L90.9859 41.7649C90.8593 47.6519 91.1125 62.6727 91.4642 71.1007C91.858 80.3052 91.9424 87.9144 91.7455 97.5142C91.5064 108.653 91.5064 109.133 91.7173 112.69C91.9846 117.194 92.0268 151.894 91.7736 154.972C91.5626 157.555 91.0985 161.339 90.8593 162.524L90.6765 163.371L90.0576 163.484C88.8339 163.71 87.1601 163.499 85.2191 162.877C83.4187 162.313 83.3906 162.299 81.4917 162.341C79.7476 162.369 79.5225 162.341 78.9881 162.059C78.6505 161.889 78.3832 161.663 78.3832 161.564C78.3832 161.466 78.5942 160.336 78.8615 159.066C80.7181 150.172 81.5339 141.941 82.5326 122.361C83.2218 108.695 83.475 105.123 85.205 84.1028C87.0335 61.9386 87.5399 53.7647 87.7509 42.132L87.8493 37.078L87.4836 37.2474C86.696 37.6144 86.6116 37.9109 86.5975 40.692C86.5975 42.8802 86.5412 43.5296 86.1896 45.4213C85.8098 47.426 85.7817 47.8777 85.7676 50.8565C85.7676 54.1035 85.7676 54.1035 85.3879 54.767L85.0222 55.4305L85.2894 55.9528C85.5285 56.4328 85.5285 56.4893 85.3175 56.6446C85.1347 56.7858 85.1206 56.941 85.2191 57.6469C85.3738 58.7481 85.3316 58.9739 84.9096 59.4116L84.558 59.7786L84.994 60.1316L85.4301 60.4704L85.0644 61.4162C84.6705 62.4609 84.6283 63.0256 84.8815 63.7174C85.0081 64.0985 84.98 64.395 84.6424 65.6656C84.2345 67.1902 84.2345 67.402 84.6565 68.5031C84.6986 68.602 84.5439 68.9125 84.3048 69.1808C84.0657 69.449 83.8688 69.7172 83.8688 69.7596C83.8688 69.816 84.0235 70.0702 84.2064 70.3102C84.7971 71.1007 84.7971 71.3407 84.1923 71.6372C83.5312 71.9478 83.4328 72.3854 83.911 72.8654C84.2204 73.176 84.2345 73.2324 84.0235 73.4301C83.8688 73.5854 83.7703 74.0089 83.7281 74.6865L83.6578 75.703L83.1655 75.8583C82.4622 76.0841 82.4763 76.3947 83.2218 76.8324C83.5593 77.03 83.8829 77.2982 83.925 77.4112C83.9672 77.5241 83.8266 77.99 83.6015 78.4276C82.9264 79.7829 82.8279 80.2064 83.0811 80.7005C83.3906 81.2934 83.3624 81.5475 82.9545 81.7311C82.7576 81.8158 82.6029 81.9993 82.6029 82.1405C82.6029 82.2816 82.7576 82.5075 82.9545 82.6346C83.4046 82.931 83.3906 83.1287 82.9405 83.6651C82.5748 84.1028 82.5748 84.1169 82.7998 84.6816C83.0108 85.2039 83.0108 85.3169 82.7998 86.1215C82.6591 86.658 82.6029 87.2368 82.6591 87.6321C82.842 89.0156 82.842 88.9591 82.3778 89.1144L81.9277 89.2556L82.2653 89.8909C82.617 90.5826 82.7154 91.4155 82.4341 91.4014C81.4636 91.3732 81.4073 91.5708 82.1106 92.6014C82.7013 93.4484 82.7013 93.8155 82.1106 94.1261C81.8855 94.239 81.6605 94.3519 81.6324 94.3661C81.5058 94.4366 82.0543 95.1002 82.3216 95.1849C82.7576 95.326 82.5888 95.5943 82.0262 95.679C81.3511 95.7778 81.2948 96.3142 81.8855 96.9919C82.1247 97.2601 82.3216 97.5848 82.3216 97.6977C82.3216 98.0083 81.8715 98.2342 81.6042 98.0648C81.2807 97.853 81.1963 97.9095 81.1963 98.3895C81.1963 98.7283 81.337 98.9542 81.7871 99.3636C82.3497 99.9 82.3638 99.9142 82.1106 100.197C81.9559 100.366 81.6746 100.479 81.3792 100.479C80.9854 100.479 80.915 100.521 80.915 100.818C80.915 101.029 81.0979 101.298 81.4073 101.566C82.0403 102.074 82.1247 102.611 81.5902 102.667C81.3933 102.695 81.0557 102.808 80.8447 102.921L80.4509 103.119L81.0979 103.655C81.773 104.22 82.1387 104.855 81.9699 105.152C81.8996 105.251 81.6464 105.279 81.2526 105.222C80.4087 105.109 80.2118 105.222 80.2118 105.773C80.2118 106.225 80.2539 106.253 80.7884 106.366C81.5761 106.521 81.7871 106.846 81.3792 107.283C80.8025 107.905 80.7462 108.314 81.1119 109.203C81.7308 110.714 81.759 110.629 80.7462 110.672C79.9445 110.714 79.8601 110.742 79.9023 110.996C79.9304 111.152 80.1274 111.547 80.3665 111.872C80.8869 112.606 80.8869 112.817 80.3524 113.043C80.1274 113.142 79.9304 113.269 79.9304 113.326C79.9304 113.396 80.2539 113.721 80.6478 114.06C81.1823 114.526 81.3229 114.737 81.2526 114.921C81.1401 115.217 80.6478 115.443 80.1274 115.443C79.5788 115.443 79.6913 115.951 80.3524 116.361C80.6618 116.558 80.915 116.784 80.915 116.855C80.915 116.926 80.7181 117.307 80.4931 117.674C79.9304 118.605 79.9445 118.987 80.5775 119.509C81.2948 120.102 81.1963 120.441 80.3102 120.497L79.621 120.54L79.8742 120.921C80.0711 121.217 80.1414 121.584 80.1414 122.587C80.1414 123.617 80.1977 123.942 80.3946 124.154C80.5212 124.309 80.6337 124.563 80.6337 124.732C80.6337 125.17 79.9726 125.89 79.5647 125.89C79.0021 125.89 79.2272 126.723 79.9867 127.429C80.4368 127.852 80.2961 128.163 79.5085 128.572C79.199 128.728 78.9459 128.925 78.9459 129.01C78.9459 129.208 79.9304 130.196 80.1977 130.281C80.4931 130.379 80.1414 130.859 79.4803 131.269C78.8193 131.692 78.8052 131.975 79.4522 132.285C79.9023 132.511 79.9445 132.568 79.9023 133.062C79.8601 133.556 79.8179 133.598 79.185 133.796C78.5942 133.979 78.5239 134.05 78.552 134.36C78.5802 134.6 78.7771 134.812 79.199 135.038C79.8038 135.377 80.1555 135.814 80.0008 136.054C79.9586 136.139 79.6632 136.196 79.3538 136.196C78.7067 136.196 78.2426 136.393 78.2426 136.676C78.2426 136.93 78.9177 137.509 79.4944 137.734C79.7335 137.847 79.9304 138.017 79.9304 138.116C79.9304 138.356 79.4241 138.68 78.8474 138.807C77.8628 139.005 77.905 139.64 78.9177 140.163C79.9726 140.699 79.8601 141.56 78.7208 141.56C78.0879 141.56 78.0175 141.885 78.5239 142.464C79.185 143.212 79.1006 143.466 78.0316 143.819C77.5252 143.988 77.1173 144.158 77.1173 144.186C77.1173 144.468 77.483 144.807 77.9191 144.948C78.6083 145.174 78.9459 145.485 78.9459 145.866C78.9459 146.275 78.6786 146.501 78.0457 146.6C77.6237 146.671 77.5393 146.741 77.5393 147.01C77.5393 147.264 77.68 147.405 78.0738 147.588C78.3973 147.744 78.6083 147.955 78.6364 148.139C78.6786 148.393 78.5802 148.449 78.116 148.534C77.5393 148.619 77.1173 149.028 77.1173 149.494C77.1173 149.635 77.3705 149.904 77.68 150.101C78.4817 150.609 78.4395 150.962 77.5674 151.075C77.1877 151.118 76.7657 151.245 76.625 151.358C76.3859 151.527 76.3719 151.584 76.5547 151.795C76.6672 151.936 77.0048 152.191 77.2861 152.374C77.8769 152.755 78.0175 153.278 77.5393 153.278C77.3705 153.278 77.047 153.376 76.822 153.503C76.4 153.715 76.4 153.729 76.6391 154.012C76.7798 154.167 77.1033 154.379 77.3565 154.478C78.1863 154.831 77.8909 155.339 76.7798 155.48C76.2734 155.551 76.1328 155.621 76.2031 155.79C76.4985 156.553 76.836 158.261 76.836 158.953C76.836 159.405 76.822 159.772 76.7938 159.772C76.7657 159.772 76.3156 159.546 75.767 159.277C73.4322 158.092 70.9566 157.527 67.595 157.414L65.1617 157.329V156.863C65.1617 156.609 65.0913 156.383 65.0069 156.355C64.8944 156.313 65.1054 154.972 65.6961 152.007C66.1603 149.635 66.9339 145.386 67.3981 142.548C67.8622 139.711 68.7202 134.487 69.311 130.93C70.9707 120.78 71.7302 117.18 72.9821 113.283C73.9245 110.389 74.0511 109.825 74.1636 108.455C74.262 107.156 74.3605 106.747 74.7403 105.928L75.1904 104.954L75.3029 101.481C75.4154 97.5848 75.4295 97.486 76.822 90.8085C78.7208 81.7028 81.5058 65.962 82.4622 58.9034C83.475 51.4353 84.136 42.9931 84.1501 37.6144V36.3721L83.7422 36.5839C83.0249 36.965 82.8561 37.5721 82.9545 39.5344C83.053 41.4402 83.0389 41.5955 80.8588 57.9151C80.2821 62.2633 79.6773 67.0208 79.5085 68.5031C79.3397 69.9855 79.0303 71.9054 78.8052 72.8089C77.7644 76.9594 76.7938 82.3381 75.2185 92.7143C73.2493 105.575 72.6164 108.78 70.5628 116.22C69.0859 121.556 69.0015 121.852 68.6921 123.278C68.2983 125.057 67.5387 129.645 66.7089 135.278C65.3023 144.892 64.6694 148.421 63.6004 152.784C62.5877 156.934 62.3345 157.71 61.9547 157.767C61.7859 157.795 61.6453 157.866 61.6453 157.936C61.6453 158.148 60.7029 158.374 60.295 158.275C60.0699 158.219 59.5495 157.922 59.1275 157.626C58.1711 156.906 57.4256 156.652 54.7813 156.101C52.1511 155.565 51.2368 155.24 50.5195 154.562C49.8584 153.913 49.8443 153.687 50.3225 151.936C50.5195 151.231 50.8008 149.918 50.9555 149.014C51.3071 146.953 51.6869 145.654 52.9106 142.224C54.5563 137.636 54.6406 137.311 54.8938 134.713C55.1189 132.497 55.2314 132.045 56.3988 129.024C57.2287 126.822 57.5522 125.777 58.0023 123.659C59.2541 117.702 61.0123 111.053 63.741 101.961C64.2052 100.408 64.81 98.3189 65.0773 97.3166C65.4289 96.0037 65.668 95.3966 65.9212 95.1284C66.2728 94.7613 66.2869 94.6766 66.2588 93.4061C66.2306 92.0932 66.2306 92.0508 67.0183 90.032C70.1127 81.9852 70.394 81.0534 71.6177 74.5736C72.6867 68.969 73.0946 67.3879 74.1073 64.9738C74.7825 63.3503 75.0919 62.3621 75.4295 60.7386C75.6686 59.5669 76.3719 56.574 76.9907 54.0611C77.5956 51.5482 78.327 48.4001 78.6083 47.073C79.6773 41.9061 80.479 38.7721 81.1541 37.0074C81.2807 36.6686 80.69 36.7815 80.2118 37.1768C79.5647 37.7274 79.1287 38.6732 77.4549 43.1202C77.0611 44.1649 76.8923 45.1672 76.6954 47.5389C76.4703 50.2777 76.2734 51.6894 76.0624 51.9153C75.964 52.0282 75.8233 52.3106 75.7811 52.5506C75.6405 53.1576 75.3169 53.6094 75.0356 53.6094C74.8387 53.6094 74.7965 53.7647 74.7825 54.6399C74.7825 55.9387 74.248 57.4916 73.4462 58.5645C72.8414 59.3833 72.7992 59.5951 73.1087 60.6115C73.2212 60.9927 73.3196 61.5433 73.3196 61.8256V62.3621H72.6164C72.1522 62.3621 71.9131 62.4186 71.899 62.5315C71.8568 62.9409 71.9694 63.1527 72.3632 63.4915C72.6445 63.7315 72.7711 63.9574 72.743 64.1268C72.6867 64.3668 72.546 64.4091 71.8287 64.4515L70.9848 64.4938L71.041 65.8632C71.0692 66.6396 71.1817 67.4161 71.2942 67.642C71.5474 68.1643 71.5474 68.1502 71.2098 68.1502C70.8301 68.1502 70.2252 68.4467 70.2252 68.6443C70.2252 68.729 70.4503 69.0114 70.7175 69.2796C71.0973 69.6466 71.2098 69.8725 71.2098 70.2396C71.2098 70.7054 71.1958 70.7196 70.7597 70.6631C70.5065 70.6207 70.183 70.5501 70.0564 70.4796C69.8314 70.3949 69.8033 70.4654 69.8033 70.9737C69.8033 71.6513 70.0002 72.1031 70.2956 72.1031C70.5487 72.1031 70.5628 72.2583 70.3378 72.5689C70.183 72.7666 70.0705 72.7807 69.6767 72.6677C69.4094 72.5972 69.1422 72.5689 69.0859 72.6113C68.8327 72.7666 68.9734 73.4724 69.3813 74.0795C69.8033 74.7148 69.9158 75.0677 69.6767 75.0677C69.6064 75.0677 69.2969 74.983 68.9875 74.87C68.1295 74.5595 67.9607 74.9406 68.678 75.59C69.3391 76.183 69.2406 76.4512 68.3686 76.5077L67.6231 76.55L67.5809 77.2276C67.5528 77.7217 67.6653 78.2864 67.9748 79.1758C68.2139 79.8676 68.3686 80.5029 68.3264 80.5734C68.2139 80.757 67.1449 81.0252 66.8354 80.9546C66.3291 80.8134 66.5401 81.3922 67.1308 81.7875C67.595 82.0981 67.6934 82.2393 67.6934 82.6346C67.6934 83.1851 67.4543 83.3546 66.4979 83.4957C65.7524 83.5945 65.7524 83.7498 66.4416 84.2016C67.1308 84.6675 67.2715 84.7945 67.2715 85.0204C67.2715 85.1757 67.0886 85.2322 66.5682 85.2322C65.9775 85.2322 65.8649 85.2745 65.8649 85.5004C65.8649 85.6416 66.0618 85.9945 66.2869 86.291C66.7229 86.8415 66.7792 87.0251 66.5963 87.3074C66.526 87.4345 66.3432 87.4345 65.8931 87.3074C65.246 87.138 64.8522 87.265 64.7678 87.6744C64.7397 87.8015 64.9788 88.1827 65.2882 88.5215C65.6117 88.8603 65.8649 89.2697 65.8649 89.425C65.8649 89.7779 65.3304 90.032 64.599 90.032C64.2896 90.032 64.0364 90.0885 64.0364 90.1732C64.0364 90.4979 64.374 90.992 64.7397 91.2179L65.1476 91.4579L64.6272 91.9379C64.1067 92.4037 64.1067 92.4179 64.1067 93.5896V94.7613L63.3753 94.8037C62.4892 94.8602 62.4189 95.0578 63.0518 95.7637C63.6144 96.4131 63.5019 96.6107 62.6299 96.5542C61.9969 96.4978 61.9266 96.526 61.9266 96.7942C61.9266 96.9636 62.0813 97.3448 62.2782 97.6554C62.4751 97.966 62.6299 98.3471 62.6299 98.5024C62.6299 98.7424 62.5314 98.7848 62.0672 98.7848C61.5749 98.7848 61.5046 98.8271 61.5046 99.1236C61.5046 99.3071 61.7015 99.6883 61.9266 99.9847C62.4611 100.662 62.4892 101.269 61.9828 101.495C61.7156 101.622 61.5187 101.622 61.2233 101.509C60.4778 101.227 60.4356 101.834 61.153 102.512C61.4202 102.78 61.6453 103.105 61.6453 103.26C61.6453 103.571 61.1248 103.867 60.5763 103.867C60.2387 103.867 60.2247 103.909 60.309 104.333C60.3653 104.573 60.4216 104.883 60.4638 105.011C60.5763 105.406 60.1684 105.759 59.6198 105.745C59.1838 105.73 59.1135 105.773 59.1135 106.055C59.1135 106.267 59.2823 106.521 59.5917 106.761C60.1121 107.156 60.309 107.721 60.0137 107.975C59.859 108.102 59.648 108.088 59.1697 107.961C58.6212 107.806 58.5087 107.806 58.3117 108.003C58.1008 108.215 58.143 108.286 58.8181 108.921C59.4229 109.5 59.5495 109.697 59.5073 110.022C59.4651 110.432 59.4651 110.432 58.368 110.474L57.2568 110.516L57.8335 110.926C58.2977 111.264 58.4102 111.434 58.4102 111.787C58.4102 112.154 58.368 112.21 58.1711 112.126C57.5522 111.857 57.285 111.872 57.285 112.168C57.285 112.507 57.4819 112.676 58.1711 112.888C58.6071 113.043 58.6915 113.128 58.6915 113.453C58.6915 114.144 58.2836 114.356 57.2146 114.243C56.5395 114.173 56.3004 114.201 56.3004 114.314C56.3004 114.511 57.1865 115.415 57.6929 115.74C58.2414 116.093 57.946 116.29 56.8489 116.29C56.1597 116.29 55.8784 116.347 55.8784 116.46C55.8784 116.756 56.0472 116.926 56.6801 117.335C57.1302 117.603 57.285 117.801 57.285 118.055C57.285 118.38 57.2428 118.408 56.5817 118.408C55.9628 118.408 55.8784 118.436 55.8784 118.704C55.8784 118.874 56.0613 119.227 56.3004 119.495C56.7364 119.989 56.7927 120.187 56.5958 120.511C56.5114 120.638 56.3426 120.681 56.0753 120.61C55.2455 120.398 54.9642 120.441 54.922 120.751C54.8938 120.977 55.0204 121.147 55.3721 121.372C55.8503 121.669 56.3004 122.163 56.3004 122.389C56.3004 122.46 55.8925 122.502 55.3861 122.502C54.6828 122.502 54.4719 122.544 54.4719 122.7C54.4719 122.968 54.8094 123.292 55.3439 123.575C55.7096 123.758 55.7518 123.843 55.6674 124.238C55.5127 124.944 55.3299 125.085 54.6828 125.001C54.3734 124.958 54.0077 124.888 53.8811 124.831C53.6701 124.747 53.6279 124.803 53.6279 125.099C53.6279 125.495 53.8248 125.721 54.6125 126.229C54.9923 126.469 55.1048 126.624 55.1048 126.949C55.1048 127.415 54.9642 127.443 53.867 127.231L53.3326 127.118L53.3747 127.598C53.4029 127.979 53.5295 128.149 53.9374 128.417C54.5984 128.841 54.6828 129.335 54.0921 129.179C53.4029 128.996 52.8684 129.052 52.8121 129.292C52.7981 129.419 52.995 129.786 53.2763 130.111C53.5435 130.45 53.7686 130.831 53.7686 130.986C53.7686 131.226 53.6561 131.255 52.8543 131.255C52.0385 131.255 51.9401 131.283 51.9401 131.537C51.9401 131.72 52.1229 131.904 52.4746 132.059C52.8684 132.257 53.009 132.412 53.0372 132.709C53.0794 133.09 53.0653 133.09 52.3058 133.09C51.8697 133.09 51.5181 133.146 51.5181 133.217C51.5181 133.57 51.7431 133.838 52.2776 134.106C52.9106 134.431 53.0653 134.586 53.0653 134.953C53.0653 135.179 52.9247 135.207 51.9401 135.207C50.9273 135.207 50.8148 135.236 50.8148 135.476C50.8148 135.631 51.068 136.054 51.3774 136.407C51.9541 137.071 52.362 137.749 52.362 138.031C52.362 138.116 51.926 138.172 51.2368 138.172C50.2241 138.172 50.1115 138.2 50.1115 138.44C50.1115 138.709 50.7164 139.301 50.9977 139.301C51.2509 139.301 51.6588 139.753 51.6588 140.021C51.6588 140.163 51.504 140.389 51.3212 140.501C51.0399 140.685 50.8711 140.699 50.4351 140.586C49.6052 140.346 49.4083 140.389 49.4083 140.784C49.4083 140.996 49.5489 141.221 49.774 141.377C50.421 141.814 50.9555 142.379 50.9555 142.605C50.9555 142.788 50.7867 142.831 50.0694 142.831C48.8035 142.831 48.6909 143.014 49.4927 143.833C49.9287 144.285 50.1256 144.581 50.0694 144.723C49.9287 145.09 49.5349 145.16 49.0988 144.906C48.8597 144.779 48.5221 144.666 48.3252 144.666C47.7767 144.666 47.9455 145.231 48.5925 145.584C48.9722 145.781 49.127 145.965 49.127 146.177C49.127 146.473 49.0566 146.501 48.4237 146.501C48.0439 146.501 47.7204 146.53 47.7204 146.572C47.7204 146.614 47.9455 146.967 48.2127 147.362C48.4799 147.758 48.705 148.153 48.705 148.252C48.705 148.337 48.7472 148.548 48.7894 148.718C48.8738 149.014 48.8316 149.042 48.3956 149.042C48.1283 149.042 47.5094 148.845 47.0171 148.605C46.1029 148.139 44.3728 146.628 43.9649 145.922C43.7821 145.626 43.5148 145.457 42.9522 145.287C42.1083 145.047 41.4331 144.61 39.9141 143.381C38.9154 142.577 37.9167 141.984 37.537 141.984C37.1009 141.984 37.1713 141.631 38.0011 139.965C39.0139 137.904 39.9844 136.294 41.194 134.685C41.8832 133.767 42.0942 133.386 42.0942 133.019C42.0942 132.017 42.6287 130.309 43.2476 129.25C46.7921 123.377 49.4927 117.151 55.0345 102.102C55.6674 100.394 56.9333 97.1472 57.8476 94.9025C59.437 90.9638 60.4638 88.3097 62.2079 83.4675C64.0223 78.4841 67.8622 68.3761 70.9707 60.4563C71.885 58.0987 72.4054 56.5458 72.6726 55.3599C73.0805 53.4823 74.2902 49.233 75.8374 44.2355C76.7376 41.3273 76.836 40.8755 76.836 39.8591L76.822 38.7156L76.4141 39.1674C75.9921 39.6332 75.767 40.2826 75.3591 42.2449C75.1763 43.0637 74.8387 43.9108 74.0933 45.3507C72.8696 47.7224 72.8133 47.8777 72.546 49.9247C72.3351 51.5765 72.1522 52.0282 71.5615 52.4235C71.041 52.7623 70.4643 54.4564 69.1703 59.468C68.889 60.5551 68.467 62.0798 68.2279 62.8562C67.4121 65.5244 64.3318 73.5007 63.2487 75.7312C61.8141 78.6958 61.7437 78.8652 61.2233 80.7287C60.3934 83.6651 59.7464 85.5286 57.8054 90.5967C57.2287 92.1073 56.427 94.2955 56.0191 95.4672C53.9655 101.467 53.4029 102.935 51.3493 107.89C44.9636 123.278 40.547 132.511 36.6649 138.624C35.9054 139.81 35.9054 139.81 35.0614 139.993C33.894 140.233 33.7815 140.163 31.095 137.438C28.9429 135.264 28.521 134.77 28.085 133.852C27.6067 132.892 27.5645 132.695 27.5505 131.579C27.5364 130.365 27.5505 130.337 27.9162 130.153C28.1271 130.055 28.5772 129.645 28.9008 129.236C29.2383 128.841 29.8009 128.219 30.1526 127.866C30.6027 127.415 30.8418 127.034 30.9824 126.525C31.1372 125.989 31.3903 125.608 32.0655 124.902C32.7547 124.182 33.1485 123.575 33.9081 122.078C34.4285 121.034 35.7647 118.733 36.8618 116.968C38.9998 113.551 40.125 111.49 40.8283 109.81C41.0674 109.232 41.4894 108.497 41.7988 108.159C42.5584 107.34 43.0929 106.225 43.6414 104.291C44.1759 102.413 44.5979 101.509 45.3293 100.62C46.2154 99.533 46.3279 99.293 46.4545 98.0083C46.5952 96.6107 46.8905 95.9048 48.4237 93.2084C48.9582 92.2767 49.999 90.2156 50.7445 88.6203C54.7813 80.0511 58.143 72.6536 61.2374 65.5385C62.1094 63.5197 63.3894 60.7527 64.0786 59.3975C66.4275 54.7811 67.6231 52 70.8301 43.7131C71.7162 41.4261 72.7711 38.8991 73.1649 38.0944C73.9104 36.5698 74.0511 35.8215 73.6994 35.3416C73.5166 35.1016 73.4744 35.1298 73.0524 35.6945C72.4195 36.5839 71.3645 38.6732 70.3659 41.1155C69.4376 43.3461 68.5374 45.2378 68.1013 45.859C67.9607 46.0566 67.806 46.5084 67.7497 46.8472C67.4262 49.1201 66.8073 50.7294 64.6412 55.0211C63.7973 56.6869 62.9534 58.5504 62.7705 59.1433C62.5736 59.7504 62.3485 60.2445 62.2642 60.2445C62.1798 60.2445 61.9969 60.3998 61.8703 60.5974C61.7437 60.7951 61.5046 60.9504 61.3499 60.9504C61.1248 60.9504 61.0826 61.0068 61.153 61.1904C61.2092 61.3315 61.2796 61.6421 61.3218 61.8821C61.3921 62.2915 61.3499 62.3621 60.8857 62.5739C60.2247 62.8986 59.9011 63.4491 59.4792 65.0303C59.0432 66.6538 58.7196 67.289 58.157 67.6561C57.7351 67.9243 57.721 67.9808 57.7069 68.8984V69.8725L57.1865 69.816C56.7364 69.7737 56.652 69.816 56.6098 70.0702C56.5817 70.2396 56.6661 70.6207 56.7786 70.9031C56.9052 71.1995 57.0037 71.5525 57.0037 71.6936C57.0037 72.0325 56.4973 72.2442 55.7237 72.2442C55.0345 72.2442 54.9782 72.5689 55.5971 73.1618C55.8221 73.3877 56.0191 73.6701 56.0191 73.783C56.0191 73.9101 55.6956 74.1924 55.3017 74.4324C54.0499 75.1806 53.4732 76.2677 53.4591 77.9194C53.4591 78.8088 53.4451 78.8652 53.0653 79.0205C52.7559 79.1476 52.6011 79.1476 52.362 79.0205C52.1089 78.8794 52.0245 78.8935 51.926 79.0347C51.8557 79.1476 51.8275 79.2888 51.8557 79.3735C51.8838 79.4441 51.9823 79.7546 52.0948 80.037C52.2214 80.4181 52.2354 80.6864 52.137 80.9546C52.0245 81.3075 51.926 81.3499 51.2649 81.3922C50.3929 81.4487 50.2944 81.7028 50.9555 82.3381C51.4618 82.8181 51.49 83.1146 51.0539 83.1146C50.5054 83.1146 50.1537 83.6651 49.7177 85.2322C49.127 87.4062 48.7894 87.9144 48.0158 87.9144C47.636 87.9144 47.5094 88.4085 47.7767 88.8321C47.9033 89.0156 48.0017 89.3262 48.0017 89.5238C48.0017 89.8062 47.9033 89.905 47.4672 90.0179C47.1859 90.1026 46.8624 90.1732 46.7499 90.1732C46.5952 90.1732 46.5811 90.3144 46.6655 90.8367C46.8484 92.079 46.8202 92.4602 46.553 92.6296C46.342 92.7567 46.2435 92.7143 45.9763 92.3896C45.6246 91.952 45.3152 91.9096 45.0339 92.2343C44.8792 92.4179 44.8932 92.5449 45.1605 93.039C45.695 94.0414 45.5825 94.2672 44.7385 93.9143C44.5275 93.8296 44.4853 93.8861 44.4853 94.3096C44.4853 94.719 44.5838 94.8884 44.9917 95.2272C45.8356 95.9331 45.484 96.0884 43.7961 95.7354C43.3601 95.6507 43.332 95.6648 43.4304 95.9754C43.6695 96.7378 43.7821 96.9213 44.1337 97.2036C44.3447 97.373 44.4713 97.5707 44.415 97.6554C44.3728 97.726 43.8524 97.7966 43.2757 97.7966C42.263 97.7966 42.2208 97.8107 42.263 98.1071C42.2911 98.333 42.474 98.4883 42.8678 98.6436C43.6977 98.9542 43.7821 99.0389 43.7821 99.533C43.7821 100.324 43.6133 100.437 42.8397 100.211C41.8832 99.9424 41.616 99.9424 41.5597 100.239C41.5316 100.394 41.7707 100.747 42.2208 101.185C42.9803 101.919 43.0788 102.173 42.7131 102.469C42.5443 102.611 42.3615 102.611 41.7707 102.469C40.5048 102.173 40.4767 102.187 40.5048 102.738C40.5189 103.062 40.6314 103.302 40.8564 103.472C41.7707 104.149 41.9536 104.333 41.9536 104.516C41.9536 104.785 41.2503 104.771 40.3501 104.502C39.9141 104.361 39.6046 104.333 39.5202 104.418C39.253 104.686 39.5624 105.208 40.1954 105.589C40.6173 105.843 40.8283 106.069 40.8283 106.267C40.8283 106.662 40.3923 106.634 39.9844 106.196C39.5905 105.773 38.9998 105.716 38.9998 106.112C38.9998 106.253 39.0983 106.606 39.2108 106.874C39.4921 107.552 39.4921 108.441 39.2248 108.342C38.7747 108.159 38.0011 108.074 37.6636 108.159C37.1291 108.3 37.1994 108.766 37.8042 109.006C38.2121 109.189 38.2965 109.288 38.2965 109.641C38.2965 110.149 38.1137 110.192 37.5229 109.796C36.9462 109.415 36.89 109.429 36.89 110.008C36.89 110.672 37.1994 111.25 37.6636 111.462C37.973 111.603 38.0152 111.674 37.8746 111.843C37.6214 112.14 37.3401 112.112 36.8056 111.702C36.5524 111.504 36.2148 111.349 36.0601 111.349C35.821 111.349 35.7647 111.434 35.7647 111.815C35.7647 112.069 35.8632 112.62 35.9898 113.029C36.1023 113.439 36.1726 113.82 36.1304 113.862C36.0882 113.904 35.8913 113.862 35.6944 113.777C35.2724 113.58 35.188 113.58 34.9489 113.721C34.7239 113.876 35.0896 114.85 35.5115 115.175C35.821 115.415 35.7507 115.726 35.399 115.726C35.2865 115.726 35.0052 115.627 34.7801 115.514C34.4004 115.316 34.3582 115.316 34.2316 115.556C34.1331 115.74 34.1753 115.98 34.4004 116.417C34.9208 117.434 34.2597 117.942 33.4439 117.137C33.1907 116.883 32.8954 116.714 32.7969 116.742C32.6984 116.77 32.614 117.194 32.5719 117.857C32.5156 118.733 32.5578 118.973 32.7547 119.17C32.9376 119.354 32.9516 119.453 32.825 119.58C32.6984 119.707 32.5437 119.678 32.178 119.481C31.9108 119.325 31.6435 119.241 31.6013 119.283C31.5591 119.34 31.5873 119.608 31.6717 119.89C31.8404 120.54 31.7561 120.765 31.2497 121.034C30.7855 121.274 30.7855 121.26 31.0106 121.895C31.2356 122.53 31.0106 122.784 30.5042 122.445C30.3073 122.318 30.0541 122.22 29.9275 122.22C29.59 122.22 29.6603 123.095 30.0541 123.674C30.2932 124.027 30.3495 124.21 30.237 124.323C29.9557 124.605 29.6322 124.492 28.957 123.899C28.1131 123.151 27.9724 123.419 28.5772 124.676C29.3649 126.314 28.9851 126.808 27.9302 125.523C27.663 125.184 27.3817 124.902 27.3113 124.902C27.1144 124.902 27.1707 125.636 27.3957 126.031C27.5786 126.37 27.6771 127.019 27.5364 127.019C27.5083 127.019 27.3254 126.949 27.1285 126.864C26.7487 126.681 26.594 126.384 26.2846 125.071C26.1017 124.365 25.9048 123.998 25.3422 123.335C24.9483 122.883 23.8794 121.471 22.9651 120.215L21.3194 117.914L21.6429 116.954C22.1774 115.373 22.7541 114.511 23.8653 113.622C25.2859 112.493 25.8626 111.872 26.0595 111.25C26.3549 110.29 26.8191 109.726 27.4379 109.542C28.1412 109.33 28.9148 108.469 29.9838 106.733C31.742 103.867 32.9235 102.229 35.1458 99.5612C38.1137 96.0037 38.7325 95.1566 40.6877 92.0508C43.0788 88.2533 43.8946 87.0533 44.5557 86.3615C44.8932 86.0086 45.6809 84.8369 46.3279 83.7498C47.5094 81.7311 48.9863 79.4441 50.0553 77.99C50.3788 77.5523 51.0539 76.4088 51.5322 75.4489C52.5308 73.4724 54.9079 69.1666 57.7069 64.2679C61.2233 58.0987 63.2487 54.3011 64.9085 50.7153C65.9775 48.4424 67.6934 44.2496 67.6934 43.9672C67.6794 43.8684 67.3559 44.1649 66.948 44.6025C66.2025 45.4213 66.104 45.5907 64.585 48.7248C63.8817 50.2071 63.5441 50.7294 62.8268 51.4635C62.0954 52.2259 61.8844 52.5647 61.5749 53.4541C61.0264 55.0211 58.7478 59.6092 57.4678 61.7268C56.8489 62.7291 55.3721 65.1432 54.1905 67.0914C52.995 69.0255 51.7291 71.3125 51.3634 72.1454C50.646 73.783 50.1397 74.5736 49.7037 74.7148C49.5489 74.7571 49.4083 74.983 49.352 75.223C49.2395 75.8441 48.6347 76.9876 47.9877 77.8629C47.3125 78.7523 46.764 79.8111 46.6374 80.4605C46.5811 80.7428 46.2576 81.2511 45.7794 81.7734C45.3433 82.2393 44.5275 83.3546 43.9509 84.2439C41.7988 87.5756 41.3347 88.225 40.5048 89.0579C39.8297 89.7497 39.5202 90.2156 38.9998 91.3449C37.6214 94.3943 35.8491 96.9636 33.3595 99.5471C31.9811 101.001 31.1512 102.032 29.59 104.291C26.8613 108.257 25.2859 110.276 23.5277 112.041C21.3898 114.201 19.8285 115.147 18.0562 115.387L17.2967 115.486L17.367 114.85C17.4374 114.243 17.4233 114.201 16.7903 113.679C16.4246 113.368 15.8902 112.832 15.5948 112.479C14.99 111.759 13.9913 109.754 13.5412 108.356L13.2318 107.425L13.8928 106.38C15.2431 104.305 17.7187 101.665 21.2772 98.573C23.6684 96.4837 26.2002 93.9849 26.2002 93.7025C26.2002 93.5755 26.2986 93.3496 26.4112 93.1943C26.5237 93.0531 26.6221 92.7284 26.6221 92.5026C26.6221 92.1638 26.7909 91.8955 27.3395 91.3732C28.5491 90.1873 31.3622 86.9686 33.6408 84.1592C37.537 79.3735 39.7734 76.7194 41.3628 75.0253C42.3896 73.9101 43.2898 72.7666 44.0071 71.6372C45.8778 68.7008 48.6206 64.6068 52.1511 59.468C58.1711 50.7153 61.0686 46.2401 63.6426 41.7367C65.3304 38.8003 67.7497 34.1416 67.6512 34.0286C67.4965 33.8734 66.8495 34.1416 66.3853 34.551C65.8649 35.0027 65.6117 35.511 65.1476 37.0498C64.7397 38.4333 64.5006 38.7721 63.2347 39.8026C61.378 41.3132 61.2092 41.5108 61.2374 42.372C61.2655 43.0496 61.1952 43.2049 60.5622 44.1649C60.1684 44.7437 59.5214 45.859 59.1135 46.6495C58.2555 48.3718 57.3975 49.3883 56.5114 49.7553L55.8784 50.0094V50.9553V51.9012L55.2736 52.2682C54.922 52.4659 54.4437 52.6212 54.1484 52.6212C53.5717 52.6212 53.5154 52.7623 53.8389 53.327C53.9514 53.5247 54.0358 53.8494 54.0499 54.047C54.0499 54.3717 53.9796 54.4423 53.5717 54.5129C52.995 54.6258 52.7981 54.8376 52.1792 56.094C51.6728 57.0963 51.1243 57.7034 50.7164 57.7034C50.5757 57.7034 50.5335 57.7881 50.6038 57.9434C50.6601 58.0846 50.7304 58.4092 50.7726 58.6492C50.843 59.0869 50.8148 59.1292 50.21 59.3833C49.4505 59.708 49.2254 60.0751 49.2957 60.8233L49.352 61.3739H48.6206H47.8892L47.9595 61.9668C48.058 62.9127 47.6501 63.435 46.5952 63.7315L45.7512 63.9574V64.8467C45.7512 65.8208 45.5121 66.1455 45.0198 65.8773C44.7948 65.7644 44.7807 65.7926 44.8651 66.1738C44.9354 66.5691 44.8651 66.682 44.0774 67.4161C43.2194 68.2208 43.2194 68.2208 43.2194 68.9972V69.7737L42.474 70.1266C41.7988 70.4513 41.7285 70.5219 41.63 71.1148C41.4613 71.9478 41.3628 72.0607 40.6173 72.1736C39.9141 72.2725 39.7031 72.5266 39.7031 73.2607C39.7031 74.0089 39.5202 74.1783 38.9717 73.9665C38.5638 73.8112 38.4794 73.8254 38.3246 74.0371C38.2262 74.1783 38.1699 74.3901 38.2121 74.503C38.2403 74.6159 38.3387 74.9124 38.409 75.1524L38.5497 75.6041L37.2979 76.1265C36.6087 76.4088 36.0179 76.7053 35.9616 76.7759C35.9194 76.8465 36.032 77.1853 36.2008 77.5382C36.5946 78.3147 36.468 78.5123 35.7366 78.2864C34.8223 78.0041 34.4004 78.4417 34.9067 79.1476C35.0755 79.3735 35.2021 79.684 35.2021 79.8252C35.2021 80.517 34.33 80.6581 33.8518 80.037C33.683 79.8252 33.5002 79.6982 33.458 79.7405C33.4017 79.7829 33.3033 80.2205 33.2189 80.7005C33.0501 81.6605 32.8813 81.7452 32.1077 81.3499C31.7561 81.1664 31.6857 81.1664 31.6857 81.3217C31.6857 81.6605 32.1077 82.7475 32.2765 82.8463C32.4031 82.931 32.4031 83.0016 32.2624 83.171C32.1077 83.3546 32.0374 83.3546 31.6576 83.1146C31.1512 82.804 30.8418 82.8887 30.8418 83.3263C30.8418 83.5098 30.6167 83.9334 30.3354 84.2722C29.7728 84.9216 29.4352 85.6133 29.4352 86.0651C29.4352 86.4039 28.9851 86.5733 28.6054 86.3757C28.4507 86.291 28.1693 86.2204 27.9724 86.2204C27.6911 86.2204 27.6067 86.291 27.6067 86.5309C27.6208 86.7145 27.7052 87.0109 27.8177 87.2086C28.2537 87.9709 27.874 88.5638 27.1988 88.2109C27.0441 88.1262 26.7487 88.0556 26.5518 88.0556C26.2424 88.0556 26.2002 88.1121 26.2564 88.338C26.2986 88.4933 26.383 88.7474 26.4252 88.9168C26.6643 89.7638 26.0033 90.2297 25.5532 89.5379C25.2719 89.1144 25.1312 89.1003 24.9343 89.4815C24.8077 89.6932 24.8218 89.9191 24.9905 90.4132C25.1171 90.7803 25.2156 91.2179 25.2156 91.4014C25.2156 91.712 25.1734 91.7261 24.2451 91.7261C23.6965 91.7261 23.2183 91.7967 23.1761 91.8673C23.1198 91.952 23.2464 92.2061 23.4574 92.4602C24.1466 93.279 23.5981 93.9425 22.8244 93.2084C22.5994 92.9967 22.3181 92.8555 22.1634 92.8837C21.9524 92.9261 21.9102 93.0673 21.9243 93.7449C21.9383 94.6202 21.7977 94.7613 21.3476 94.2672C21.0522 93.9284 20.6021 93.9002 20.4896 94.1966C20.4333 94.3096 20.5036 94.6625 20.6302 94.9731C20.7568 95.2837 20.8553 95.5801 20.8553 95.6225C20.8553 95.7072 20.4896 95.6507 19.6878 95.4531C19.3221 95.3684 19.3081 95.3825 19.3081 95.9331C19.3081 96.2437 19.4065 96.5966 19.5191 96.7095C19.7019 96.8931 19.7019 96.9495 19.505 97.1048C19.3221 97.246 19.2096 97.246 18.8439 97.0907C18.5907 96.9919 18.211 96.9072 17.9718 96.8931C17.6061 96.8789 17.5499 96.9213 17.6061 97.2319C17.6202 97.4295 17.7609 97.7401 17.9015 97.9519C18.0422 98.1495 18.211 98.4883 18.2672 98.7001L18.3516 99.0812L17.8171 98.8412C17.5077 98.7142 17.0998 98.573 16.8747 98.5307C16.509 98.4742 16.495 98.4883 16.495 99.1236C16.495 99.66 16.4528 99.773 16.2418 99.773C16.1011 99.773 15.8902 99.6177 15.7917 99.4201C15.5807 99.0248 15.2713 99.0107 15.0322 99.3777C14.9196 99.5612 14.9478 99.7871 15.1306 100.295C15.5666 101.509 15.2994 102.074 14.6946 101.227C14.5117 100.973 14.357 100.888 14.1742 100.945C13.9772 101.029 13.9491 101.142 14.0194 101.58C14.2164 102.653 14.1882 102.935 13.921 102.992C13.3162 103.119 12.7817 102.229 12.5707 100.747C12.4441 99.8577 12.205 99.2506 10.9532 96.6672C10.1374 95.0013 9.23716 93.2084 8.94179 92.6861L8.4073 91.7402L9.11057 91.0203C10.0389 90.0462 11.0938 89.3262 13.5271 87.9286C19.4628 84.5263 29.2243 76.7053 38.6482 67.8114C44.2884 62.475 47.4954 59.2281 47.9033 58.3951C48.4659 57.2799 49.4927 55.9528 50.7445 54.7387C51.3493 54.1599 52.1511 53.2141 52.5449 52.6212C52.9387 52.0423 54.0499 50.5459 55.0345 49.3036C56.005 48.0613 57.1021 46.6354 57.4537 46.1272C58.0586 45.2519 59.3948 42.979 59.3948 42.8096C59.3948 42.7673 59.0572 42.9084 58.6634 43.1061C57.6085 43.6425 56.0331 45.2943 54.3734 47.6095C53.5998 48.6965 51.5884 51.2094 49.9006 53.1858C48.2127 55.1623 46.0185 57.8163 45.0058 59.0728C43.5992 60.8515 43.0366 61.4304 42.5865 61.6562C42.2349 61.8256 41.5597 62.4186 40.983 63.0538C40.4345 63.6609 39.7453 64.2962 39.4358 64.4373C39.0279 64.6491 38.6763 65.0162 38.1559 65.7926C37.3541 67.0067 36.257 68.0655 34.9067 68.9408C34.4004 69.2655 33.894 69.6466 33.7815 69.7878C33.669 69.9149 32.0936 71.2701 30.2792 72.7948C28.4647 74.3054 26.369 76.1688 25.6235 76.9171C24.7092 77.8488 23.8231 78.5688 22.8807 79.1617C21.1366 80.2629 19.941 81.124 15.7214 84.3145C10.9954 87.9003 8.4073 89.6085 7.71809 89.6085C7.43678 89.6085 7.28206 89.4956 7.09921 89.1568C6.97262 88.9168 6.71944 88.5497 6.53659 88.3662L6.21308 88.0274L6.35373 84.3992C6.50845 80.8699 6.7335 78.7382 7.11327 77.4676C7.29612 76.8324 7.31019 76.8324 9.11057 75.9147C10.1233 75.4065 11.8815 74.5595 13.0208 74.023C15.4823 72.8654 17.0295 71.9336 18.0703 70.9878C18.5345 70.5643 19.5191 69.9572 20.6443 69.3784C23.9638 67.6843 27.4098 65.4679 31.5451 62.3762C33.9081 60.6115 42.8397 53.4682 45.1183 51.5059C47.1437 49.7836 50.2381 46.706 51.6166 45.0684C52.7277 43.7555 55.1048 40.3532 54.9923 40.2403C54.8938 40.1414 53.7686 40.6073 53.3326 40.932C53.0934 41.1155 52.5589 41.7791 52.137 42.4143C51.3353 43.6002 49.4786 45.3931 43.0085 51.1388C39.1264 54.5835 38.8451 54.8235 38.0152 55.1623C36.7915 55.6846 35.4834 56.6022 34.527 57.6187C33.8237 58.3387 33.5424 58.5504 33.2329 58.5504C33.0079 58.5504 32.7828 58.4798 32.7266 58.3951C32.6703 58.2963 32.5719 58.3669 32.4734 58.5645C32.389 58.7339 31.9811 59.0869 31.5591 59.3269C30.6589 59.8633 30.4198 60.1457 30.4198 60.7104C30.4198 61.1198 30.4058 61.1198 29.8853 61.0633C29.4071 60.9927 29.3368 61.021 29.1821 61.3739C29.0695 61.6139 28.7038 61.9245 28.1975 62.1927C27.3113 62.6727 26.9878 62.9691 26.8472 63.4491C26.7065 63.8868 26.2002 63.8727 25.6657 63.4209C25.1593 62.9974 24.9343 62.9691 25.0327 63.3644C25.1312 63.7174 24.8358 64.3103 24.5123 64.4091C24.0622 64.5503 23.5277 65.1573 23.5277 65.5385C23.5277 65.9479 23.4574 65.962 22.7682 65.6797C22.3884 65.5103 22.1774 65.4961 21.9805 65.6091C21.657 65.7926 21.6429 65.8491 21.9102 66.3149C22.1774 66.7808 22.1774 67.289 21.8961 67.402C21.7695 67.4443 21.4601 67.3737 21.1929 67.2467C20.9256 67.1196 20.4755 67.0208 20.2083 67.0208H19.7019L19.8004 67.7267C19.8707 68.2067 19.8426 68.5031 19.73 68.6443C19.4487 68.9831 19.0549 68.8843 18.8158 68.4325C18.4079 67.642 17.8031 68.009 17.6624 69.1102C17.5921 69.7455 17.5358 69.8584 17.2264 69.9431C16.9451 70.0137 16.7903 69.9431 16.5512 69.6608C16.3684 69.449 16.1293 69.2796 16.0167 69.2796C15.8058 69.2796 15.5526 69.929 15.4823 70.6631L15.4401 71.0019L15.0603 70.7054C14.5961 70.3243 14.4133 70.3243 14.357 70.7196C14.3148 71.016 14.1179 71.1713 13.1896 71.5666C12.852 71.7219 12.7535 71.8631 12.6973 72.3148C12.627 72.8513 12.5988 72.8795 12.1487 72.8513C11.8252 72.8372 11.5298 72.6819 11.1641 72.3289C10.8828 72.0466 10.6015 71.8207 10.5453 71.8207C10.489 71.8207 10.4468 72.2019 10.4468 72.6819V73.543L10.0389 73.4442C9.47628 73.3171 9.09651 73.5571 8.75894 74.2206C8.35104 75.0253 8.01346 75.1665 7.64776 74.7006C7.2258 74.1642 7.26799 73.2042 7.77435 71.6513C8.01346 70.9313 8.23851 69.929 8.29478 69.4208L8.37917 68.5031L10.1514 67.882C13.7241 66.6538 16.8607 65.0162 21.0241 62.2068C23.7387 60.3857 24.7374 59.6092 26.4252 57.9998C28.2819 56.2211 29.2383 55.614 33.0219 53.8494C35.6663 52.5929 36.9181 51.9294 37.7339 51.3224C38.4794 50.7577 39.478 49.6989 39.9141 49.0212C40.3641 48.3013 40.8846 47.1295 40.7861 47.0307C40.758 47.0025 40.3923 47.2283 39.9703 47.553C38.6341 48.5554 36.046 50.1506 31.5873 52.7059C25.314 56.2917 22.3603 58.3245 20.1239 60.5692C19.4628 61.2327 19.0408 61.5292 18.4641 61.7268C18.0281 61.8821 17.4092 62.2492 17.0576 62.5739C16.706 62.8844 15.9183 63.5056 15.2994 63.9432C14.6805 64.3809 13.9913 64.9314 13.7663 65.1714C13.5131 65.4397 13.2036 65.6091 12.9927 65.6091C12.3175 65.6091 10.6578 66.0326 9.9967 66.3573L9.32156 66.6961L8.98398 66.1879C8.18225 64.9879 8.16819 63.7738 8.91366 62.3621C9.15277 61.8962 10.0108 60.6963 10.8125 59.708C11.7127 58.5787 12.4582 57.4775 12.7957 56.7716C13.2458 55.8399 13.4568 55.5576 14.1601 55.0352C14.6243 54.6823 15.2853 53.9905 15.637 53.4964C18.6329 49.2753 20.0254 47.6519 21.6289 46.5507C23.4293 45.3084 25.6798 44.2778 29.0977 43.1484L31.3341 42.4143L35.9054 42.3155C39.8015 42.2167 40.6173 42.1602 41.4613 41.9343C45.0761 40.9179 49.127 38.8144 52.1089 36.4145C53.3326 35.4121 53.2341 35.638 54.4015 31.0922C55.794 25.6712 56.4692 23.5959 57.4959 21.563C57.8195 20.9278 57.8476 20.716 57.8476 18.9655C57.8476 17.5961 57.721 16.1985 57.3975 13.9115C57.088 11.6668 56.9474 10.1986 56.9474 8.78688C56.9333 6.95163 56.9615 6.73987 57.3412 5.7093C57.6366 4.90462 57.932 4.39639 58.4383 3.83171L59.1416 3.06937L59.6198 3.4223C60.3231 3.95876 61.4906 4.46698 62.5877 4.69286C63.2065 4.83403 64.81 4.93286 67.1308 4.9752C70.9285 5.05991 72.0397 5.17285 73.3618 5.6246C74.1214 5.87872 74.248 5.89284 74.8528 5.69519C76.3015 5.24344 77.8487 5.00345 81.6183 4.69286C84.6283 4.43875 84.7408 4.41052 85.4863 3.987C85.7958 3.80347 86.5553 3.56348 87.1742 3.43642C90.4655 2.78702 93.2786 2.6882 99.9035 2.99878C105.572 3.2529 106.444 3.23878 110.031 2.71645C112.83 2.30704 114.982 2.32115 117.19 2.78702ZM123.126 33.8169C123.688 34.1839 124.799 35.3133 124.799 35.5251C124.799 35.5816 124.659 35.6804 124.49 35.751C123.688 36.1039 124.11 36.8239 125.939 38.165C127.781 39.5203 128.372 40.2403 128.667 41.4967C128.963 42.7108 129.047 42.8943 129.525 43.3884L129.891 43.7414L130.271 43.3884C130.693 42.979 130.918 42.9226 131.03 43.219C131.073 43.332 131.537 43.6425 132.071 43.9249C133.351 44.6025 134.842 45.746 137.388 48.0048C140.117 50.4471 140.806 50.9835 145.687 54.5976C147.937 56.2493 151.186 58.7481 152.902 60.1316C157.403 63.7456 158.979 64.762 166.574 69.0255C171.131 71.5807 173.143 72.7807 174.69 73.8254C175.618 74.4465 175.773 74.503 176.546 74.503C177.334 74.503 177.461 74.5453 178.206 75.1383C178.656 75.4771 179.43 76.07 179.936 76.4371C181.723 77.7641 181.99 79.0488 181.272 82.9169C181.061 84.0745 180.865 85.1051 180.836 85.218C180.794 85.3592 180.611 85.3874 180.063 85.3169C178.938 85.1616 178.248 84.851 174.718 82.8322C169.05 79.5993 166.447 77.8347 164.141 75.6465C163.184 74.743 162.833 74.503 162.509 74.503C162.27 74.503 161.792 74.3477 161.426 74.1501C161.06 73.9524 160.681 73.7971 160.582 73.7971C160.484 73.7971 160.371 73.6701 160.315 73.5289C160.273 73.3736 159.949 73.0207 159.612 72.7383C159.26 72.456 158.979 72.1031 158.979 71.9619C158.979 71.7784 158.669 71.5384 157.966 71.1572C156.602 70.4372 155.139 69.3361 153.338 67.642C151.003 65.4397 149.92 64.5079 147.642 62.7433C143.999 59.9339 142.972 59.0445 139.357 55.614C134.055 50.5741 131.368 47.8495 129.314 45.3507C126.515 41.9767 125.714 40.8473 124.856 39.1391C124.335 38.1227 123.829 37.318 123.337 36.8098C122.169 35.5816 121.185 34.0145 121.339 33.6192C121.466 33.2663 122.422 33.3793 123.126 33.8169ZM126.769 36.5274C127.064 36.6827 127.809 37.2333 128.414 37.7415C129.019 38.2638 129.765 38.8568 130.06 39.0544L130.623 39.4215L130.032 39.4638C129.23 39.5203 128.203 38.9556 127.275 37.925C126.572 37.1345 125.967 36.2451 126.136 36.2451C126.178 36.2451 126.459 36.3721 126.769 36.5274Z" fill="white"/>
</g>
<defs>
<filter id="filter0_d_1_11359" x="0" y="0.26355" width="188" height="173" filterUnits="userSpaceOnUse" color-interpolation-filters="sRGB">
<feFlood flood-opacity="0" result="BackgroundImageFix"/>
<feColorMatrix in="SourceAlpha" type="matrix" values="0 0 0 0 0 0 0 0 0 0 0 0 0 0 0 0 0 0 127 0" result="hardAlpha"/>
<feOffset dy="4"/>
<feGaussianBlur stdDeviation="2"/>
<feComposite in2="hardAlpha" operator="out"/>
<feColorMatrix type="matrix" values="0 0 0 0 0 0 0 0 0 0 0 0 0 0 0 0 0 0 0.25 0"/>
<feBlend mode="normal" in2="BackgroundImageFix" result="effect1_dropShadow_1_11359"/>
<feBlend mode="normal" in="SourceGraphic" in2="effect1_dropShadow_1_11359" result="shape"/>
</filter>
</defs>
</svg>
